<?xml version="1.0" encoding="UTF-8"?><svg id="b" xmlns="http://www.w3.org/2000/svg" viewBox="0 0 890.452 3070.957"><g id="c"><path id="d" d="M445.883,1090.909c-245.625,0-444.569,198.945-444.569,444.569s198.945,444.569,444.569,444.569,444.57-199.167,444.57-444.569-198.945-444.569-444.57-444.569ZM473.418,1288.005c20.866-22.827,53.825-38.321,82.245-38.321,1.816,29.591-9.682,58.612-30.234,79.748-18.443,22.827-50.198,40.013-79.527,36.631-6.351-29.591,11.184-59.182,27.516-78.058ZM629.767,1694.904c-22.073,31.301-46.568,62.859-83.766,62.859-35.385,0-48.087-20.86-88.914-20.86-43.847,0-56.254,20.86-89.822,20.86-37.198,0-63.51-33.247-86.783-64.253-30.237-40.583-55.937-104.267-56.845-165.415-.61-32.403,6.056-64.256,22.978-91.308,23.886-37.772,66.526-63.411,113.095-64.256,35.68-1.121,67.435,22.828,89.209,22.828,20.87,0,59.884-22.828,104.023-22.828,19.053.019,69.861,5.367,101.321,50.452-2.426,1.416-60.176,31.282-60.176,97.504,2.722,75.52,72.878,102.003,74.081,102.003-1.203,1.416-10.59,36.08-38.401,72.414Z" fill="#1a1a1a"/><path id="e" d="M444.569,0C198.945,0,0,198.945,0,444.569s198.945,444.569,444.569,444.569,444.57-199.167,444.57-444.569S690.194,0,444.569,0ZM472.104,197.096c20.866-22.827,53.825-38.321,82.245-38.321,1.816,29.591-9.682,58.612-30.234,79.748-18.443,22.827-50.198,40.013-79.527,36.631-6.351-29.591,11.184-59.182,27.516-78.058ZM628.453,603.995c-22.073,31.301-46.568,62.859-83.766,62.859-35.385,0-48.087-20.86-88.914-20.86-43.847,0-56.254,20.86-89.822,20.86-37.198,0-63.51-33.247-86.783-64.253-30.237-40.583-55.937-104.267-56.845-165.415-.61-32.403,6.056-64.256,22.978-91.308,23.886-37.772,66.526-63.411,113.095-64.256,35.68-1.121,67.435,22.828,89.209,22.828,20.87,0,59.884-22.828,104.023-22.828,19.053.019,69.861,5.367,101.321,50.452-2.426,1.416-60.176,31.282-60.176,97.504,2.722,75.52,72.878,102.003,74.081,102.003-1.203,1.416-10.59,36.08-38.401,72.414Z"/><path id="f" d="M445.883,2181.818c-245.625,0-444.569,198.945-444.569,444.569s198.945,444.569,444.569,444.569,444.57-199.167,444.57-444.569-198.945-444.569-444.57-444.569ZM473.418,2378.914c20.866-22.827,53.825-38.321,82.245-38.321,1.816,29.591-9.682,58.612-30.234,79.748-18.443,22.827-50.198,40.013-79.527,36.631-6.351-29.591,11.184-59.182,27.516-78.058ZM629.767,2785.813c-22.073,31.301-46.568,62.859-83.766,62.859-35.385,0-48.087-20.86-88.914-20.86-43.847,0-56.254,20.86-89.822,20.86-37.198,0-63.51-33.247-86.783-64.253-30.237-40.583-55.937-104.267-56.845-165.415-.61-32.403,6.056-64.256,22.978-91.308,23.886-37.772,66.526-63.411,113.095-64.256,35.68-1.121,67.435,22.828,89.209,22.828,20.87,0,59.884-22.828,104.023-22.828,19.053.019,69.861,5.367,101.321,50.452-2.426,1.416-60.176,31.282-60.176,97.504,2.722,75.52,72.878,102.003,74.081,102.003-1.203,1.416-10.59,36.08-38.401,72.414Z" fill="#fff"/></g></svg>