<?xml version="1.0" encoding="UTF-8"?>
<svg xmlns="http://www.w3.org/2000/svg" xmlns:xlink="http://www.w3.org/1999/xlink" viewBox="0 0 1200 675">
  <defs>
    <clipPath id="d">
      <rect width="1200" height="675" fill="none"/>
    </clipPath>
    <clipPath id="e">
      <rect x="41.438" y="0" width="1200" height="675" fill="none"/>
    </clipPath>
    <image id="h" width="1080" height="1920" xlink:href="../social-share-layers/BLANK.png"/>
  </defs>
  <g isolation="isolate">
    <g id="b" data-name="Layer 2">
      <g id="c" data-name="Layer 2">
        <g clip-path="url(#d)">
          <g>
            <g clip-path="url(#e)">
              <g>
                <image width="1080" height="1920" transform="translate(354.109 -351.384) scale(.728)" xlink:href="../social-share-layers/Layer 0.png"/>
                <use transform="translate(-227.281 -814.712) scale(1.322 1.21)" xlink:href="#h"/>
                <use transform="translate(35.086 -173.175) scale(.812 .728)" xlink:href="#h"/>
              </g>
            </g>
            <g mix-blend-mode="screen">
              <g id="f" data-name="title">
                <path d="M751.721,31.633h-9.615v27.884h-7.927v-27.884h-9.615v-6.285h27.157v6.285Z" fill="#fff"/>
                <path d="M785.561,25.348v34.169h-7.974v-14.446h-13.883v14.446h-7.973V25.348h7.973v14.282h13.883v-14.282h7.974Z" fill="#fff"/>
                <path d="M825.709,42.421c0,2.471-.426,4.769-1.278,6.895-.852,2.126-2.052,3.975-3.6,5.546s-3.412,2.802-5.593,3.694-4.6,1.337-7.258,1.337-5.081-.446-7.27-1.337c-2.189-.891-4.061-2.122-5.617-3.694-1.556-1.571-2.76-3.42-3.611-5.546-.852-2.126-1.278-4.424-1.278-6.895s.426-4.768,1.278-6.895c.852-2.126,2.055-3.971,3.611-5.535,1.555-1.563,3.428-2.791,5.617-3.682,2.189-.891,4.612-1.337,7.27-1.337s5.077.449,7.258,1.348c2.181.899,4.045,2.131,5.593,3.694,1.548,1.564,2.748,3.409,3.6,5.535.852,2.126,1.278,4.417,1.278,6.871ZM817.595,42.421c0-1.688-.219-3.209-.657-4.561-.438-1.352-1.067-2.498-1.888-3.436-.821-.938-1.825-1.657-3.013-2.158-1.188-.5-2.541-.75-4.057-.75-1.532,0-2.896.25-4.092.75-1.196.501-2.205,1.22-3.025,2.158-.821.938-1.45,2.083-1.888,3.436-.438,1.352-.657,2.873-.657,4.561,0,1.704.219,3.233.657,4.585.437,1.352,1.067,2.498,1.888,3.436.821.938,1.829,1.653,3.025,2.146,1.196.493,2.56.739,4.092.739,1.516,0,2.869-.246,4.057-.739,1.188-.492,2.193-1.208,3.013-2.146.821-.938,1.45-2.083,1.888-3.436.438-1.352.657-2.881.657-4.585Z" fill="#fff"/>
                <path d="M844.634,53.256c1.063,0,2.013-.176,2.849-.528.836-.352,1.544-.856,2.123-1.513.578-.657,1.02-1.457,1.325-2.404.305-.946.457-2.02.457-3.224v-20.239h7.927v20.239c0,2.095-.34,4.018-1.02,5.769s-1.653,3.26-2.92,4.526c-1.267,1.266-2.806,2.251-4.62,2.955s-3.854,1.055-6.121,1.055c-2.283,0-4.331-.352-6.144-1.055-1.814-.704-3.354-1.689-4.62-2.955s-2.236-2.775-2.908-4.526c-.672-1.751-1.008-3.674-1.008-5.769v-20.239h7.927v20.215c0,1.204.152,2.279.457,3.224.305.946.747,1.751,1.325,2.416.578.665,1.286,1.173,2.122,1.525.836.352,1.786.528,2.849.528Z" fill="#fff"/>
                <path d="M881.921,41.811h12.148v14.423c-1.751,1.282-3.615,2.213-5.593,2.791s-4.045.868-6.203.868c-2.814,0-5.374-.442-7.68-1.325-2.306-.883-4.28-2.103-5.921-3.659-1.642-1.555-2.908-3.4-3.799-5.534-.891-2.134-1.337-4.452-1.337-6.954,0-2.548.422-4.89,1.267-7.024s2.052-3.975,3.623-5.523,3.471-2.752,5.699-3.611,4.717-1.29,7.469-1.29c1.422,0,2.759.117,4.01.352,1.25.234,2.404.555,3.459.961,1.055.407,2.021.891,2.896,1.454.875.563,1.657,1.172,2.345,1.829l-2.298,3.494c-.36.547-.825.883-1.395,1.008-.571.125-1.184-.015-1.841-.422-.626-.375-1.216-.699-1.771-.973-.555-.273-1.122-.496-1.7-.668-.579-.172-1.188-.297-1.829-.375-.641-.078-1.36-.117-2.158-.117-1.485,0-2.822.262-4.01.786-1.188.524-2.201,1.262-3.037,2.216-.837.954-1.481,2.099-1.935,3.436-.454,1.337-.68,2.826-.68,4.467,0,1.814.25,3.424.751,4.831.5,1.407,1.208,2.596,2.122,3.565.914.97,2.009,1.708,3.283,2.216,1.274.508,2.685.762,4.233.762.953,0,1.818-.094,2.591-.281.774-.188,1.528-.438,2.263-.751v-5.183h-3.377c-.501,0-.891-.133-1.173-.399-.281-.266-.422-.602-.422-1.008v-4.362Z" fill="#fff"/>
                <path d="M929.223,25.348v34.169h-7.974v-14.446h-13.883v14.446h-7.973V25.348h7.973v14.282h13.883v-14.282h7.974Z" fill="#fff"/>
                <path d="M960.389,31.633h-9.615v27.884h-7.927v-27.884h-9.615v-6.285h27.156v6.285Z" fill="#fff"/>
                <path d="M1002.812,25.348v34.169h-6.989v-19.652c0-.453.012-.946.035-1.477.023-.531.066-1.071.129-1.618l-9.075,17.565c-.282.547-.661.962-1.137,1.243-.477.281-1.02.422-1.63.422h-1.079c-.61,0-1.153-.141-1.63-.422-.477-.282-.856-.696-1.137-1.243l-9.076-17.612c.047.563.086,1.114.117,1.653.031.539.047,1.036.047,1.489v19.652h-6.989V25.348h6.05c.344,0,.645.008.903.024.258.016.489.063.692.141.203.079.387.199.551.364.164.164.324.395.481.692l8.794,17.331c.313.594.613,1.212.903,1.853.289.641.567,1.298.832,1.97.266-.688.543-1.36.832-2.017.289-.657.598-1.282.926-1.876l8.771-17.26c.156-.297.316-.528.481-.692s.348-.285.551-.364c.203-.078.434-.125.692-.141.258-.015.559-.024.903-.024h6.051Z" fill="#fff"/>
                <path d="M1040.076,59.517h-6.144c-.688,0-1.243-.16-1.665-.481-.422-.32-.743-.731-.962-1.231l-2.017-5.957h-12.992l-2.017,5.957c-.172.438-.481.832-.926,1.184s-.997.528-1.653.528h-6.191l13.227-34.169h8.114l13.226,34.169ZM1027.483,46.455l-3.166-9.357c-.234-.594-.485-1.294-.75-2.099-.266-.805-.532-1.677-.797-2.615-.234.954-.485,1.837-.75,2.65-.266.813-.516,1.517-.751,2.11l-3.142,9.311h9.357Z" fill="#fff"/>
                <path d="M1070.727,59.517h-7.176c-1.329,0-2.283-.5-2.861-1.501l-5.675-9.92c-.266-.422-.563-.731-.891-.926-.328-.195-.797-.293-1.407-.293h-2.017v12.64h-7.927V25.348h11.116c2.47,0,4.577.254,6.32.762,1.743.508,3.166,1.216,4.268,2.123,1.102.907,1.903,1.978,2.404,3.213.5,1.235.75,2.58.75,4.034,0,1.11-.149,2.158-.446,3.142-.297.985-.735,1.896-1.313,2.732-.579.837-1.294,1.583-2.146,2.24-.852.657-1.833,1.196-2.943,1.618.516.266,1,.598,1.454.997.453.399.859.872,1.22,1.419l7.27,11.89ZM1053.889,41.413c1.079,0,1.997-.137,2.756-.41.758-.274,1.38-.653,1.864-1.137s.836-1.051,1.055-1.7c.219-.649.328-1.349.328-2.099,0-1.501-.489-2.673-1.466-3.518-.977-.844-2.49-1.267-4.538-1.267h-3.189v10.131h3.189Z" fill="#fff"/>
                <path d="M1081.537,39.185h1.266c1.172,0,2.017-.367,2.533-1.102l7.692-11.163c.453-.594.942-1.004,1.466-1.231.524-.226,1.176-.34,1.958-.34h6.894l-10.131,13.813c-.719.954-1.493,1.642-2.322,2.064.594.219,1.133.524,1.618.915.484.391.938.899,1.36,1.524l10.318,15.853h-7.082c-.454,0-.841-.031-1.161-.094-.321-.062-.598-.156-.833-.282-.234-.125-.438-.277-.61-.457s-.336-.387-.492-.622l-7.739-11.89c-.282-.438-.637-.747-1.067-.926-.43-.18-1.012-.27-1.747-.27h-1.923v14.54h-7.927V25.348h7.927v13.836Z" fill="#fff"/>
                <path d="M1125.626,32.29c-.235.375-.481.657-.739.844s-.59.282-.997.282c-.36,0-.747-.113-1.161-.34-.414-.226-.883-.481-1.407-.762-.524-.282-1.122-.536-1.794-.762-.672-.226-1.438-.34-2.298-.34-1.485,0-2.591.317-3.318.95-.727.633-1.091,1.489-1.091,2.568,0,.688.219,1.259.657,1.712.437.454,1.012.844,1.724,1.172.711.328,1.524.629,2.439.903.915.274,1.849.579,2.803.914.953.337,1.888.731,2.802,1.184.915.454,1.727,1.032,2.439,1.735.711.704,1.286,1.56,1.724,2.568.438,1.009.657,2.224.657,3.647,0,1.579-.274,3.057-.821,4.432-.547,1.376-1.341,2.576-2.38,3.6-1.04,1.024-2.322,1.829-3.846,2.416s-3.256.879-5.195.879c-1.063,0-2.146-.11-3.248-.329-1.102-.219-2.169-.527-3.201-.926-1.032-.399-2.001-.871-2.908-1.419-.907-.547-1.697-1.157-2.369-1.829l2.345-3.705c.188-.266.434-.489.739-.668.305-.18.637-.27.997-.27.469,0,.942.149,1.419.446.476.297,1.016.625,1.618.985.601.36,1.293.688,2.075.985.782.297,1.704.446,2.767.446,1.438,0,2.556-.317,3.354-.95.797-.633,1.196-1.638,1.196-3.013,0-.797-.219-1.446-.657-1.947-.438-.5-1.012-.914-1.724-1.243-.712-.329-1.521-.618-2.427-.868-.907-.25-1.837-.528-2.791-.833-.954-.305-1.884-.68-2.791-1.126-.907-.446-1.716-1.032-2.427-1.759-.712-.727-1.286-1.634-1.724-2.721-.438-1.086-.657-2.427-.657-4.022,0-1.282.258-2.533.774-3.752.516-1.219,1.274-2.306,2.275-3.26,1-.953,2.228-1.715,3.682-2.286,1.454-.571,3.119-.856,4.995-.856,1.047,0,2.068.082,3.061.246.992.164,1.935.407,2.826.727.891.321,1.724.704,2.498,1.149s1.466.95,2.075,1.512l-1.97,3.682Z" fill="#fff"/>
              </g>
              <g id="g" data-name="tagline">
                <path d="M781.67,82.366c-.041-.198.076-.409.348-.634.272-.224.635-.452,1.089-.683.453-.231.957-.466,1.512-.703.554-.238,1.089-.468,1.604-.693.515-.224.973-.439,1.375-.643.402-.205.689-.399.862-.584.369-.396.714-.858,1.036-1.386.321-.528.575-1.04.763-1.535.187-.495.295-.944.324-1.346.029-.403-.073-.676-.306-.822-.233-.145-.607-.125-1.121.059-.515.185-1.213.601-2.094,1.248-.245.185-.56.512-.948.98-.387.469-.806.987-1.254,1.554-.448.568-.906,1.139-1.374,1.713-.468.574-.909,1.06-1.323,1.456-.414.396-.781.657-1.1.782-.319.126-.546.023-.678-.307.023-.092.067-.251.133-.476.065-.224.13-.465.195-.723.065-.257.12-.498.168-.723.047-.224.083-.382.106-.475.171-.898.328-1.776.472-2.634.143-.858.281-1.71.412-2.555.131-.845.257-1.69.38-2.534.122-.845.249-1.71.381-2.595.06-.382.142-.64.247-.772.105-.132.215-.175.329-.129.114.046.232.168.353.366.121.198.223.436.307.713.083.277.138.581.163.911.025.33.007.654-.054.97-.04.158-.089.409-.149.752-.059.344-.125.73-.196,1.158-.072.429-.15.881-.233,1.357-.083.476-.165.928-.246,1.357-.08.429-.15.815-.21,1.158-.059.343-.099.594-.121.753.448-.211.851-.472,1.208-.782.357-.31.706-.627,1.048-.951.342-.323.699-.636,1.073-.941.373-.303.793-.561,1.259-.772,1.284-.528,2.309-.815,3.076-.862.767-.046,1.315.08,1.646.377.33.297.462.723.394,1.277-.067.554-.294,1.172-.681,1.852-.386.68-.91,1.386-1.57,2.119-.661.733-1.418,1.419-2.27,2.06-.854.641-1.79,1.198-2.808,1.673-1.019.476-2.079.792-3.18.951l-.203-.159c-.085-.092-.133-.151-.144-.178Z" fill="#feff00"/>
                <path d="M793.641,81.514c-.327-.488-.46-1.033-.399-1.633.06-.601.219-1.231.475-1.891.255-.66.567-1.327.934-2,.366-.673.7-1.324,1.002-1.951.301-.627.53-1.214.685-1.762.155-.548.148-1.02-.023-1.416-.091-.211-.259-.313-.503-.307-.245.007-.512.033-.802.079-.291.046-.574.063-.849.049-.275-.013-.491-.138-.648-.376.031-.052.116-.122.255-.208.138-.085.236-.135.293-.148,1.662-.171,2.984-.049,3.969.366.984.416,1.704,1.004,2.161,1.762.457.76.684,1.628.682,2.604-.003.977-.161,1.948-.474,2.911-.314.964-.746,1.858-1.294,2.683-.549.825-1.141,1.462-1.775,1.911-.635.448-1.278.647-1.93.594-.652-.053-1.239-.475-1.76-1.268ZM795.218,80.821c.008.039.049.092.122.158.073.066.149.138.229.218.079.08.156.149.231.208.075.059.129.096.162.109.735-.277,1.324-.653,1.767-1.129.443-.475.768-1.003.978-1.584.209-.58.326-1.191.352-1.832.026-.64-.013-1.257-.115-1.852-.103-.594-.258-1.142-.465-1.644-.207-.502-.423-.911-.65-1.228-.061.172-.163.435-.307.792-.143.357-.299.76-.465,1.208-.167.449-.349.924-.547,1.426-.198.502-.386.98-.563,1.435-.177.456-.337.861-.481,1.218-.143.356-.246.621-.307.792-.052.132-.084.281-.098.446-.015.165-.015.327,0,.485.014.159.035.307.064.446.028.139.059.248.093.327Z" fill="#feff00"/>
                <path d="M802.646,81.514c-.327-.488-.46-1.033-.399-1.633.06-.601.219-1.231.475-1.891.255-.66.567-1.327.934-2,.366-.673.7-1.324,1.002-1.951.301-.627.53-1.214.685-1.762.155-.548.148-1.02-.023-1.416-.091-.211-.259-.313-.503-.307-.245.007-.512.033-.803.079-.291.046-.573.063-.849.049-.276-.013-.491-.138-.648-.376.031-.052.116-.122.254-.208.138-.085.236-.135.293-.148,1.662-.171,2.985-.049,3.969.366.984.416,1.704,1.004,2.161,1.762.457.76.684,1.628.682,2.604-.002.977-.161,1.948-.474,2.911-.314.964-.746,1.858-1.294,2.683-.549.825-1.14,1.462-1.775,1.911-.634.448-1.278.647-1.929.594-.653-.053-1.239-.475-1.76-1.268ZM804.223,80.821c.008.039.048.092.122.158.073.066.149.138.229.218.079.08.156.149.231.208.075.059.129.096.162.109.735-.277,1.324-.653,1.767-1.129.443-.475.769-1.003.978-1.584.209-.58.326-1.191.352-1.832.026-.64-.013-1.257-.115-1.852-.103-.594-.258-1.142-.465-1.644s-.423-.911-.65-1.228c-.061.172-.163.435-.307.792s-.299.76-.465,1.208c-.167.449-.349.924-.547,1.426-.198.502-.386.98-.563,1.435-.177.456-.337.861-.481,1.218-.143.356-.246.621-.307.792-.051.132-.084.281-.098.446-.015.165-.015.327,0,.485.014.159.035.307.064.446.028.139.059.248.094.327Z" fill="#feff00"/>
                <path d="M811.444,81.158c.071-.211.215-.518.434-.921.218-.403.434-.832.647-1.287s.39-.907.53-1.356c.139-.449.176-.829.11-1.139-.066-.31-.271-.518-.613-.624-.343-.105-.892-.046-1.65.178-.376-.079-.573-.191-.59-.337-.017-.145.078-.31.286-.495.208-.185.488-.386.839-.604.352-.218.709-.442,1.073-.673.364-.231.695-.459.994-.684.3-.224.493-.442.582-.653.008-.106.035-.337.08-.693.044-.357.089-.769.135-1.238.045-.469.103-.967.173-1.495.069-.528.128-1.03.175-1.505.047-.476.092-.888.135-1.238.043-.349.07-.584.082-.703.025-.171.07-.333.136-.485.065-.152.164-.28.299-.386.135-.106.3-.175.497-.208.197-.033.438-.01.725.069-.036.502-.089,1.069-.158,1.703-.069.634-.134,1.287-.195,1.961-.061.673-.109,1.347-.142,2.02-.034.673-.034,1.301,0,1.881.206-.106.468-.287.784-.545.316-.258.657-.541,1.023-.852.365-.31.745-.62,1.137-.931.393-.31.757-.561,1.093-.753.335-.191.633-.303.894-.337.26-.033.441.069.543.307.011.027.006.083-.015.169s-.046.148-.074.188c-.366.528-.862,1.017-1.487,1.465-.626.449-1.256.885-1.893,1.307-.637.423-1.209.855-1.715,1.297-.507.442-.832.914-.976,1.416.136.106.326.277.572.515l1.915,1.723c.37.317.715.624,1.037.921.321.297.604.564.851.802l.577.495c.088.079.226.208.416.386.189.178.347.373.474.584.126.212.174.416.143.614-.032.198-.235.363-.61.495-.039.013-.118.02-.234.02s-.192-.006-.224-.02c-.706-.845-1.503-1.7-2.392-2.564-.889-.864-1.874-1.614-2.957-2.248-.048.119-.122.304-.22.554-.099.251-.22.535-.362.852-.143.317-.289.65-.44,1-.151.35-.302.683-.453,1-.152.317-.286.601-.403.852-.117.251-.208.436-.274.554-.035.066-.11.169-.226.307-.116.139-.254.275-.412.406-.159.132-.329.234-.509.307s-.352.076-.515.01c.013-.053.031-.142.054-.268.022-.125.053-.264.091-.416.038-.152.078-.294.12-.426.042-.132.07-.224.083-.277Z" fill="#feff00"/>
                <path d="M830.115,82.208c.168-.528.33-1.086.487-1.673.156-.587.291-1.178.404-1.772.113-.594.203-1.185.27-1.772s.094-1.145.083-1.673c-.01-.963-.145-1.7-.404-2.208-.259-.508-.596-.779-1.01-.812-.414-.033-.862.172-1.341.614-.48.442-.936,1.132-1.369,2.07-.073.145-.174.369-.304.673-.13.304-.275.647-.434,1.03-.159.383-.324.789-.495,1.218-.171.429-.336.835-.495,1.218-.159.383-.295.726-.407,1.03-.113.304-.196.528-.25.673-.161.211-.395.337-.701.376-.307.04-.578.027-.813-.039l1.667-10.298c.025-.171.116-.32.274-.446.157-.125.323-.211.496-.257s.334-.043.483.01c.149.053.227.172.234.356l.174,3.07c.806-.991,1.499-1.693,2.081-2.109.581-.416,1.08-.63,1.497-.644.417-.013.776.132,1.078.436.301.304.564.67.789,1.099.225.429.43.885.615,1.366.184.482.387.895.607,1.238,1.205-1.862,2.383-3.205,3.534-4.03,1.151-.825,2.145-1.165,2.981-1.02.836.145,1.45.762,1.842,1.851.392,1.089.449,2.617.171,4.584-.04.304-.113.703-.219,1.199-.107.495-.219.98-.338,1.455-.119.475-.232.888-.337,1.238-.106.35-.18.538-.223.565l-.543.337-.775-.673c.28-.686.491-1.402.634-2.149.142-.746.231-1.495.267-2.248.036-.752.036-1.485-.001-2.198-.037-.713-.086-1.38-.146-2-.12-.528-.348-.835-.686-.921-.339-.086-.714-.04-1.128.139-.414.178-.817.442-1.211.792-.394.35-.713.69-.957,1.019-.157.198-.355.462-.59.792-.236.33-.467.66-.693.99-.227.33-.426.621-.597.872-.171.251-.27.396-.298.435-.132.238-.32.647-.565,1.227-.245.581-.5,1.202-.764,1.862-.265.66-.507,1.284-.726,1.871-.219.588-.368,1-.445,1.238-.05.198-.15.31-.3.337-.151.026-.309.013-.476-.039-.185-.053-.393-.152-.627-.297Z" fill="#feff00"/>
                <path d="M842.465,82.208c-.221-.554-.273-1.116-.157-1.683s.302-1.149.559-1.743c.064-.185.179-.462.344-.832.164-.369.348-.779.551-1.227.202-.449.421-.924.655-1.426.234-.502.452-.977.655-1.426.202-.449.388-.848.557-1.198.169-.349.292-.61.372-.782.283-.554.559-1.026.828-1.416.268-.389.578-.69.928-.901.35-.211.765-.323,1.245-.337.479-.013,1.074.073,1.783.258.087.013.173.063.26.149.086.086.134.148.142.188-.007.172-.006.436.003.792.009.357.02.763.032,1.218.011.455.023.931.033,1.426.011.495.022.97.034,1.426.011.455.022.861.032,1.218.009.356.019.621.031.792.034.937.204,1.588.508,1.95.304.363.68.552,1.127.564.446.013.937-.095,1.471-.327.534-.231,1.068-.475,1.6-.733.532-.257,1.028-.478,1.489-.664.46-.185.828-.218,1.104-.099-.063.251-.205.495-.427.733-.221.237-.47.459-.746.663-.277.205-.571.393-.884.565-.313.171-.601.317-.865.435-1.13.489-2.035.746-2.716.772-.681.026-1.224-.086-1.629-.337-.405-.251-.697-.594-.875-1.03-.179-.435-.324-.878-.436-1.327-.112-.449-.228-.848-.347-1.198-.119-.349-.311-.571-.575-.663-.097.171-.284.469-.561.891-.277.423-.574.872-.891,1.347-.317.476-.619.924-.905,1.347-.286.422-.487.719-.601.891-.053.066-.161.191-.324.376-.163.185-.362.386-.597.604-.235.218-.49.429-.766.634-.277.205-.546.363-.807.475-.262.112-.505.149-.729.109-.224-.039-.391-.198-.501-.475ZM845.335,76.365c-.076.159-.171.449-.286.871-.115.423-.232.872-.351,1.347-.119.476-.228.924-.324,1.347-.097.423-.149.72-.156.891.805-.7,1.576-1.515,2.314-2.446.737-.931,1.361-1.894,1.872-2.891s.863-1.987,1.056-2.971c.193-.983.148-1.878-.136-2.683-.409.41-.825.924-1.251,1.545-.426.621-.818,1.251-1.177,1.891-.359.64-.676,1.241-.951,1.802-.275.561-.478.993-.609,1.297Z" fill="#feff00"/>
                <path d="M857.35,82.326c-.398.436-.696.657-.895.664-.2.006-.33-.139-.39-.436-.06-.297-.063-.716-.008-1.257s.152-1.142.29-1.802c.138-.66.308-1.353.508-2.079.2-.726.407-1.426.621-2.099.213-.673.427-1.29.64-1.852.212-.561.4-1.003.562-1.326.162-.323.291-.498.388-.525.096-.026.142.152.136.535.655-.317,1.351-.617,2.088-.901.736-.283,1.484-.521,2.243-.712.758-.191,1.509-.313,2.251-.366.741-.052,1.436-.007,2.083.138.028.172-.012.37-.122.594-.11.225-.318.37-.622.436-.278-.039-.651-.059-1.118-.059s-.969.026-1.504.079c-.535.053-1.078.139-1.63.258-.552.119-1.063.274-1.533.465-.471.192-.871.423-1.199.693-.329.27-.539.591-.632.96l-2.157,8.595Z" fill="#feff00"/>
                <path d="M868.51,81.158c.071-.211.215-.518.434-.921.218-.403.434-.832.647-1.287s.39-.907.53-1.356c.139-.449.176-.829.11-1.139-.066-.31-.271-.518-.613-.624-.343-.105-.892-.046-1.65.178-.376-.079-.573-.191-.59-.337-.017-.145.078-.31.286-.495.208-.185.488-.386.839-.604.352-.218.709-.442,1.073-.673.364-.231.695-.459.994-.684.3-.224.493-.442.582-.653.008-.106.035-.337.08-.693.044-.357.089-.769.135-1.238.045-.469.103-.967.173-1.495.069-.528.128-1.03.175-1.505.047-.476.092-.888.135-1.238.043-.349.07-.584.082-.703.025-.171.07-.333.136-.485.065-.152.164-.28.299-.386.135-.106.3-.175.497-.208.197-.033.438-.01.725.069-.036.502-.089,1.069-.158,1.703-.069.634-.134,1.287-.195,1.961-.061.673-.109,1.347-.142,2.02-.034.673-.034,1.301,0,1.881.206-.106.468-.287.784-.545.316-.258.657-.541,1.023-.852.365-.31.745-.62,1.137-.931.393-.31.757-.561,1.093-.753.335-.191.633-.303.894-.337.26-.033.441.069.543.307.011.027.006.083-.015.169s-.046.148-.074.188c-.366.528-.862,1.017-1.487,1.465-.626.449-1.256.885-1.893,1.307-.637.423-1.209.855-1.715,1.297-.507.442-.832.914-.976,1.416.136.106.326.277.572.515l1.915,1.723c.37.317.715.624,1.037.921.321.297.604.564.851.802l.577.495c.088.079.226.208.416.386.189.178.347.373.474.584.126.212.174.416.143.614-.032.198-.235.363-.61.495-.039.013-.118.02-.234.02s-.192-.006-.224-.02c-.706-.845-1.503-1.7-2.392-2.564-.889-.864-1.874-1.614-2.957-2.248-.048.119-.122.304-.22.554-.099.251-.22.535-.362.852-.143.317-.289.65-.44,1-.151.35-.302.683-.453,1-.152.317-.286.601-.403.852-.117.251-.208.436-.274.554-.035.066-.11.169-.226.307-.116.139-.254.275-.412.406-.159.132-.329.234-.509.307s-.352.076-.515.01c.013-.053.031-.142.054-.268.022-.125.053-.264.091-.416.038-.152.078-.294.12-.426.042-.132.07-.224.083-.277Z" fill="#feff00"/>
                <path d="M880.624,82.208c-.372-.238-.608-.571-.707-1-.1-.429-.106-.832-.021-1.208.085-.376.226-.667.421-.872.195-.204.394-.208.596-.01-.215.713-.171,1.255.132,1.624.302.37.726.601,1.269.693.543.093,1.152.066,1.828-.079.675-.145,1.281-.373,1.817-.684.537-.31.946-.689,1.23-1.139.283-.448.31-.931.08-1.445-.372-.383-.805-.756-1.298-1.119-.494-.363-.992-.723-1.497-1.079-.504-.357-.988-.723-1.45-1.099-.464-.376-.858-.775-1.184-1.198-.029-.027-.033-.082-.011-.169.022-.086.053-.142.096-.168.156-.119.382-.303.679-.554.296-.251.637-.535,1.023-.852.385-.317.792-.65,1.222-1,.429-.35.837-.683,1.222-1,.385-.317.731-.601,1.037-.852s.536-.436.692-.554c.311-.238.602-.377.873-.416.271-.04.637-.013,1.1.079-.031.053-.133.169-.303.347-.17.178-.29.294-.357.346-.184.158-.523.433-1.016.822-.493.39-1.021.805-1.581,1.248-.561.442-1.088.858-1.581,1.248-.494.39-.839.657-1.038.802-.184.159-.177.344.023.555.199.212.499.449.9.713.401.264.858.558,1.371.881.512.323.987.67,1.425,1.039.438.37.788.766,1.051,1.188.262.422.347.874.253,1.356-.094.482-.409.987-.947,1.515-.537.528-1.402,1.089-2.594,1.683-.37.185-.765.344-1.185.475-.42.132-.842.221-1.268.267-.426.046-.838.043-1.239-.01-.401-.052-.756-.178-1.066-.376Z" fill="#feff00"/>
                <path d="M908.132,82.208c-.023-.053-.044-.129-.065-.228-.02-.099-.038-.205-.055-.317-.017-.112-.036-.214-.058-.307-.022-.092-.028-.159-.018-.198.018-.145.052-.37.101-.673.049-.304.104-.647.164-1.03.06-.383.13-.789.211-1.218.08-.429.151-.835.211-1.218.06-.383.119-.726.177-1.03.058-.303.106-.528.142-.673-.033-.013-.112-.02-.238-.02-.126,0-.209.007-.248.02-.15.026-.409.073-.777.138-.367.066-.759.139-1.174.218l-1.183.198c-.377.066-.631.112-.764.139l-.968-.872,5.694-1.188,2.816-7.565c.194-.488.505-.904.934-1.248.428-.343.9-.614,1.418-.812.517-.198,1.028-.317,1.533-.356s.922-.003,1.254.109c.332.112.535.304.611.574.076.271-.056.617-.396,1.039-.306.146-.532.205-.679.178s-.247-.089-.303-.188c-.056-.099-.094-.214-.115-.346-.021-.132-.066-.238-.136-.317-.279-.251-.56-.333-.842-.247-.282.086-.563.29-.842.614-.28.323-.552.729-.818,1.218-.267.489-.515,1.013-.746,1.574-.231.561-.445,1.129-.643,1.703-.198.574-.37,1.099-.517,1.574-.146.476-.261.879-.344,1.208l-.149.594c.34.079.741.073,1.206-.02.464-.092.947-.224,1.448-.396.502-.171,1.001-.353,1.499-.545.497-.191.958-.34,1.38-.445.422-.106.786-.139,1.091-.099.304.04.519.205.644.495l-1.059.673-6.071,1.723-.57.337c-.025.026-.085.211-.18.554-.095.344-.202.753-.322,1.228-.119.475-.237.96-.352,1.456-.115.495-.204.901-.265,1.218-.019.146-.006.364.038.654.044.29.065.601.063.931-.002.33-.061.637-.177.921-.116.284-.351.485-.705.604-.215.066-.395.053-.543-.039s-.253-.191-.316-.297Z" fill="#feff00"/>
                <path d="M918.983,81.514c-.327-.488-.46-1.033-.399-1.633.06-.601.219-1.231.475-1.891.255-.66.567-1.327.934-2,.366-.673.7-1.324,1.002-1.951.301-.627.53-1.214.685-1.762.155-.548.148-1.02-.023-1.416-.091-.211-.259-.313-.503-.307-.245.007-.512.033-.803.079-.291.046-.573.063-.849.049-.276-.013-.491-.138-.648-.376.031-.052.116-.122.254-.208.138-.085.236-.135.293-.148,1.662-.171,2.985-.049,3.969.366.984.416,1.704,1.004,2.161,1.762.457.76.684,1.628.682,2.604-.002.977-.161,1.948-.474,2.911-.314.964-.746,1.858-1.294,2.683-.549.825-1.14,1.462-1.775,1.911-.634.448-1.278.647-1.929.594-.653-.053-1.239-.475-1.76-1.268ZM920.561,80.821c.008.039.048.092.122.158.073.066.149.138.229.218.079.08.156.149.231.208.075.059.129.096.162.109.735-.277,1.324-.653,1.767-1.129.443-.475.769-1.003.978-1.584.209-.58.326-1.191.352-1.832.026-.64-.013-1.257-.115-1.852-.103-.594-.258-1.142-.465-1.644s-.423-.911-.65-1.228c-.061.172-.163.435-.307.792s-.299.76-.465,1.208c-.167.449-.349.924-.547,1.426-.198.502-.386.98-.563,1.435-.177.456-.337.861-.481,1.218-.143.356-.246.621-.307.792-.051.132-.084.281-.098.446-.015.165-.015.327,0,.485.014.159.035.307.064.446.028.139.059.248.094.327Z" fill="#feff00"/>
                <path d="M927.731,82.326c-.397.436-.696.657-.895.664-.2.006-.33-.139-.39-.436-.06-.297-.063-.716-.008-1.257.055-.541.151-1.142.29-1.802.139-.66.308-1.353.509-2.079.2-.726.407-1.426.621-2.099.214-.673.427-1.29.64-1.852.212-.561.4-1.003.562-1.326.162-.323.291-.498.388-.525.096-.026.142.152.136.535.655-.317,1.351-.617,2.088-.901.736-.283,1.484-.521,2.243-.712.758-.191,1.509-.313,2.25-.366.741-.052,1.436-.007,2.083.138.029.172-.012.37-.122.594-.11.225-.318.37-.622.436-.278-.039-.651-.059-1.118-.059s-.969.026-1.504.079c-.535.053-1.078.139-1.63.258-.552.119-1.063.274-1.533.465-.471.192-.871.423-1.199.693-.329.27-.539.591-.632.96l-2.157,8.595Z" fill="#feff00"/>
                <path d="M959.68,88.386c-.393-.225-.629-.522-.707-.891-.078-.37-.052-.779.079-1.228.13-.449.339-.921.625-1.416s.595-.974.927-1.436.664-.891.998-1.287c.333-.396.612-.719.837-.97.101-.119.265-.303.49-.554.225-.251.485-.535.78-.852l1.846-1.98c.295-.317.564-.601.807-.852.242-.25.424-.435.544-.554.246-.62.309-1.109.192-1.465-.117-.356-.348-.601-.693-.733-.345-.132-.773-.165-1.284-.099-.511.066-1.05.205-1.615.416s-1.128.479-1.685.802c-.558.323-1.048.683-1.472,1.079-.124.066-.352.221-.683.466s-.729.541-1.195.891c-.465.35-.979.73-1.54,1.139-.562.409-1.13.809-1.704,1.198-.574.39-1.128.749-1.66,1.08-.533.33-1.016.587-1.449.772-.433.185-.791.284-1.073.297-.282.013-.446-.106-.491-.357-.015-.013-.018-.052-.01-.119.007-.066.021-.135.039-.208.018-.072.04-.142.066-.208.025-.066.052-.119.08-.158.069-.132.215-.409.438-.832.223-.422.482-.917.778-1.485.295-.568.614-1.175.956-1.822.342-.647.661-1.254.956-1.822.295-.567.558-1.059.789-1.475.23-.416.389-.69.476-.822.066-.119.222-.277.47-.475.247-.198.513-.363.798-.495.285-.132.547-.191.787-.178.24.013.394.165.466.456-.23.198-.515.508-.854.93-.34.423-.689.898-1.046,1.426-.358.528-.718,1.086-1.081,1.673-.364.588-.69,1.152-.978,1.693-.289.541-.517,1.039-.686,1.495-.168.456-.248.809-.239,1.06.944-.753,1.99-1.551,3.138-2.396,1.147-.845,2.301-1.644,3.461-2.396,1.16-.753,2.291-1.406,3.392-1.961,1.102-.554,2.081-.911,2.94-1.069.858-.158,1.555-.069,2.091.267.536.337.827,1.02.875,2.05l3.809-2.06h1.403c.069.37.001.621-.203.753-.204.132-.477.235-.819.307-.342.073-.717.152-1.125.238-.408.086-.776.261-1.103.525-.327.264-.582.653-.765,1.168-.184.515-.222,1.241-.115,2.178.086.66.091,1.34.014,2.04-.077.7-.264,1.393-.562,2.079-.13.304-.373.716-.729,1.238-.356.521-.785,1.066-1.287,1.634-.503.568-1.064,1.122-1.686,1.664-.622.541-1.26.99-1.916,1.346s-1.318.577-1.988.664c-.669.086-1.304-.037-1.905-.366ZM960.571,86.663c.018.502.177.819.476.951s.685.119,1.157-.039c.471-.159.997-.442,1.576-.852.579-.409,1.143-.898,1.69-1.466.547-.568,1.051-1.198,1.513-1.891.462-.693.815-1.403,1.06-2.129.245-.726.35-1.449.315-2.168-.035-.719-.27-1.396-.705-2.03-.47.225-.97.567-1.5,1.029-.53.462-1.054.991-1.571,1.584-.518.594-1.023,1.225-1.514,1.891s-.921,1.32-1.288,1.96c-.368.64-.662,1.238-.882,1.792-.22.555-.33,1.01-.33,1.366Z" fill="#feff00"/>
                <path d="M972.946,81.514c-.327-.488-.46-1.033-.399-1.633.06-.601.219-1.231.475-1.891.255-.66.567-1.327.934-2,.366-.673.7-1.324,1.002-1.951.301-.627.53-1.214.685-1.762.155-.548.148-1.02-.023-1.416-.091-.211-.259-.313-.503-.307-.245.007-.512.033-.802.079-.291.046-.574.063-.849.049-.275-.013-.491-.138-.648-.376.031-.052.116-.122.255-.208.138-.085.236-.135.293-.148,1.662-.171,2.984-.049,3.969.366.984.416,1.704,1.004,2.161,1.762.457.76.684,1.628.682,2.604-.003.977-.161,1.948-.474,2.911-.314.964-.746,1.858-1.294,2.683-.549.825-1.141,1.462-1.775,1.911-.635.448-1.278.647-1.93.594-.652-.053-1.239-.475-1.76-1.268ZM974.523,80.821c.008.039.049.092.122.158.073.066.149.138.229.218.079.08.156.149.231.208.075.059.129.096.162.109.735-.277,1.324-.653,1.767-1.129.443-.475.768-1.003.978-1.584.209-.58.326-1.191.352-1.832.026-.64-.013-1.257-.115-1.852-.103-.594-.258-1.142-.465-1.644-.207-.502-.423-.911-.65-1.228-.061.172-.163.435-.307.792-.143.357-.299.76-.465,1.208-.167.449-.349.924-.547,1.426-.198.502-.386.98-.563,1.435-.177.456-.337.861-.481,1.218-.143.356-.246.621-.307.792-.052.132-.084.281-.098.446-.015.165-.015.327,0,.485.014.159.035.307.064.446.028.139.059.248.093.327Z" fill="#feff00"/>
                <path d="M980.629,81.514c-.023-.052-.046-.142-.068-.267-.023-.125-.038-.264-.044-.416-.007-.152-.012-.294-.015-.426-.003-.132.003-.225.016-.277l1.898-7.565c.03-.119.114-.205.254-.258.139-.052.291-.085.456-.099.165-.013.323-.013.472,0s.25.026.301.039c-.061.172-.136.435-.226.792s-.195.76-.317,1.208c-.122.449-.241.924-.358,1.426-.117.502-.233.984-.349,1.445l-.303,1.208c-.089.356-.147.621-.171.792-.15.74-.14,1.255.03,1.545.17.291.433.426.789.406s.761-.165,1.215-.436c.455-.27.895-.594,1.323-.97.427-.376.804-.769,1.132-1.178.327-.409.531-.772.61-1.089l1.292-5.149h1.889c-.113.304-.257.7-.433,1.188-.177.489-.341,1.017-.492,1.584-.152.568-.283,1.145-.395,1.733-.111.587-.165,1.142-.161,1.664.004.522.083.977.237,1.366.154.389.413.667.776.832.363.165.846.191,1.45.079.604-.112,1.362-.413,2.277-.901.076.344-.07.673-.437.99-.368.317-.815.594-1.342.832-.528.238-1.075.413-1.643.525-.568.112-1.032.135-1.394.069-.051-.013-.123-.066-.217-.159-.094-.092-.154-.158-.18-.198-.049-.092-.131-.267-.246-.525-.115-.257-.235-.531-.36-.822s-.24-.568-.344-.832c-.105-.264-.18-.449-.225-.555-.144.146-.38.366-.706.664-.327.297-.707.614-1.143.951-.435.337-.893.653-1.372.95-.479.297-.942.508-1.387.634-.446.126-.853.139-1.224.039-.371-.099-.66-.379-.868-.842Z" fill="#feff00"/>
                <path d="M993.532,82.326c-.398.436-.696.657-.895.664-.2.006-.33-.139-.39-.436-.06-.297-.063-.716-.008-1.257s.152-1.142.29-1.802c.138-.66.308-1.353.508-2.079.2-.726.407-1.426.621-2.099.213-.673.427-1.29.64-1.852.212-.561.4-1.003.562-1.326.162-.323.291-.498.388-.525.096-.026.142.152.136.535.655-.317,1.351-.617,2.088-.901.736-.283,1.484-.521,2.243-.712.758-.191,1.509-.313,2.251-.366.741-.052,1.436-.007,2.083.138.028.172-.012.37-.122.594-.11.225-.318.37-.622.436-.278-.039-.651-.059-1.118-.059s-.969.026-1.504.079c-.535.053-1.078.139-1.63.258-.552.119-1.063.274-1.533.465-.471.192-.871.423-1.199.693-.329.27-.539.591-.632.96l-2.157,8.595Z" fill="#feff00"/>
                <path d="M1019.06,82.366c-.041-.198.076-.409.348-.634.272-.224.635-.452,1.089-.683.453-.231.957-.466,1.512-.703.554-.238,1.089-.468,1.604-.693.515-.224.973-.439,1.376-.643.402-.205.689-.399.861-.584.369-.396.714-.858,1.036-1.386.321-.528.575-1.04.763-1.535.187-.495.295-.944.325-1.346.029-.403-.073-.676-.307-.822-.233-.145-.607-.125-1.121.059-.515.185-1.213.601-2.094,1.248-.244.185-.56.512-.947.98-.387.469-.805.987-1.254,1.554-.448.568-.906,1.139-1.374,1.713-.468.574-.909,1.06-1.323,1.456-.414.396-.781.657-1.1.782s-.546.023-.678-.307c.023-.092.067-.251.133-.476.065-.224.13-.465.195-.723.065-.257.12-.498.168-.723.047-.224.083-.382.106-.475.171-.898.328-1.776.472-2.634.143-.858.281-1.71.412-2.555.131-.845.257-1.69.38-2.534.122-.845.249-1.71.381-2.595.06-.382.142-.64.247-.772.105-.132.215-.175.33-.129.114.046.232.168.353.366.121.198.223.436.307.713.083.277.137.581.163.911.025.33.007.654-.054.97-.04.158-.089.409-.149.752-.059.344-.125.73-.196,1.158-.072.429-.149.881-.233,1.357-.084.476-.165.928-.246,1.357-.081.429-.151.815-.21,1.158-.059.343-.1.594-.121.753.448-.211.851-.472,1.208-.782.357-.31.706-.627,1.048-.951.342-.323.699-.636,1.073-.941.373-.303.792-.561,1.259-.772,1.284-.528,2.309-.815,3.076-.862.767-.046,1.316.08,1.646.377s.462.723.394,1.277c-.067.554-.294,1.172-.681,1.852-.386.68-.91,1.386-1.571,2.119-.66.733-1.417,1.419-2.27,2.06-.853.641-1.789,1.198-2.807,1.673-1.019.476-2.079.792-3.18.951l-.203-.159c-.085-.092-.133-.151-.144-.178Z" fill="#feff00"/>
                <path d="M1030.773,82.326c-.398.436-.696.657-.895.664-.2.006-.33-.139-.39-.436-.06-.297-.063-.716-.008-1.257s.152-1.142.29-1.802c.138-.66.308-1.353.508-2.079.2-.726.407-1.426.621-2.099.213-.673.427-1.29.64-1.852.212-.561.4-1.003.562-1.326.162-.323.291-.498.388-.525.096-.026.142.152.136.535.655-.317,1.351-.617,2.088-.901.736-.283,1.484-.521,2.243-.712.758-.191,1.509-.313,2.251-.366.741-.052,1.436-.007,2.083.138.028.172-.012.37-.122.594-.11.225-.318.37-.622.436-.278-.039-.651-.059-1.118-.059s-.969.026-1.504.079c-.535.053-1.078.139-1.63.258-.552.119-1.063.274-1.533.465-.471.192-.871.423-1.199.693-.329.27-.539.591-.632.96l-2.157,8.595Z" fill="#feff00"/>
                <path d="M1040.401,82.208c-.221-.554-.273-1.116-.157-1.683s.302-1.149.559-1.743c.064-.185.179-.462.344-.832.164-.369.348-.779.551-1.227.202-.449.421-.924.655-1.426.234-.502.451-.977.655-1.426.202-.449.388-.848.557-1.198.169-.349.292-.61.372-.782.283-.554.559-1.026.828-1.416.268-.389.578-.69.928-.901.35-.211.765-.323,1.245-.337.479-.013,1.074.073,1.783.258.086.013.173.063.26.149s.134.148.142.188c-.007.172-.006.436.004.792.009.357.02.763.031,1.218.011.455.023.931.033,1.426.011.495.022.97.033,1.426s.022.861.032,1.218c.01.356.02.621.031.792.034.937.204,1.588.509,1.95.304.363.68.552,1.126.564.446.013.937-.095,1.471-.327.534-.231,1.068-.475,1.6-.733.532-.257,1.028-.478,1.489-.664.46-.185.828-.218,1.104-.099-.063.251-.205.495-.427.733-.222.237-.47.459-.747.663-.276.205-.571.393-.884.565s-.601.317-.865.435c-1.13.489-2.036.746-2.716.772-.681.026-1.225-.086-1.629-.337-.406-.251-.697-.594-.875-1.03-.178-.435-.324-.878-.436-1.327-.112-.449-.228-.848-.347-1.198-.119-.349-.311-.571-.576-.663-.097.171-.284.469-.56.891-.277.423-.574.872-.891,1.347-.317.476-.619.924-.905,1.347-.286.422-.487.719-.601.891-.053.066-.161.191-.324.376-.164.185-.363.386-.597.604-.235.218-.49.429-.766.634-.277.205-.546.363-.807.475-.262.112-.505.149-.729.109-.224-.039-.391-.198-.501-.475ZM1043.271,76.365c-.076.159-.171.449-.286.871-.115.423-.232.872-.351,1.347-.119.476-.228.924-.324,1.347-.097.423-.149.72-.156.891.805-.7,1.576-1.515,2.314-2.446.737-.931,1.361-1.894,1.872-2.891.511-.997.863-1.987,1.056-2.971.193-.983.148-1.878-.136-2.683-.409.41-.825.924-1.251,1.545s-.817,1.251-1.176,1.891-.676,1.241-.951,1.802c-.276.561-.479.993-.609,1.297Z" fill="#feff00"/>
                <path d="M1053.763,81.514c-.023-.052-.042-.155-.058-.307-.016-.151-.028-.32-.035-.505-.008-.184-.008-.363,0-.535.007-.171.02-.297.04-.376l2.416-9.624c.033-.132.137-.224.312-.277.175-.052.367-.082.576-.089.208-.006.396-.003.564.01.167.013.26.02.278.02l-2.674,10.654c-.056.225-.004.409.158.555.161.145.366.261.615.346.248.086.514.138.796.158s.528.01.736-.03c.182.277.122.499-.18.664s-.694.257-1.176.277c-.482.02-.96-.046-1.434-.198-.475-.151-.786-.399-.933-.743ZM1056.531,66.721c.096-.383.365-.63.807-.743.442-.112.86-.096,1.256.05l-.263,1.05c-.057.013-.154.023-.291.03-.137.007-.282.01-.434.01s-.296-.003-.429-.01c-.133-.006-.225-.016-.276-.03-.069-.013-.15-.066-.244-.159-.094-.092-.136-.158-.125-.198Z" fill="#feff00"/>
                <path d="M1059.653,82.208c.06-.171.145-.469.251-.891l.676-2.693c.106-.422.171-.719.197-.891.002-.079.013-.25.035-.515.021-.264.045-.574.072-.931.026-.356.053-.733.081-1.129.027-.396.05-.773.067-1.129.017-.357.037-.666.058-.931.021-.264.034-.442.04-.535.01-.185.045-.376.104-.574.058-.198.151-.369.278-.515.126-.145.295-.248.508-.307.213-.059.497-.043.852.049-.052.277-.102.604-.152.98-.05.376-.09.769-.12,1.178-.031.409-.042.812-.034,1.208.009.396.053.759.132,1.089.356-.488.694-.921,1.013-1.297.319-.376.663-.723,1.03-1.039.367-.317.766-.617,1.198-.901.43-.284.936-.578,1.516-.881.726-.383,1.29-.538,1.695-.465.404.073.699.297.884.673.184.377.292.861.323,1.456s.034,1.225.011,1.891c-.024.667-.039,1.32-.046,1.961-.008.64.046,1.195.163,1.664.116.469.322.812.619,1.029.296.218.739.228,1.328.03.073.357.03.617-.129.782-.159.165-.379.258-.663.277s-.599-.033-.945-.158c-.346-.125-.677-.297-.99-.515-.314-.218-.577-.478-.789-.782-.212-.303-.329-.627-.35-.97-.012-.238.023-.627.104-1.169.082-.541.147-1.122.195-1.743.048-.62.034-1.231-.04-1.832s-.273-1.08-.597-1.436l-2.227,1.347c-.067.053-.257.29-.57.713s-.664.908-1.053,1.455c-.39.548-.772,1.103-1.146,1.664-.375.561-.659,1.013-.853,1.357-.066.119-.166.34-.302.663-.135.324-.276.671-.423,1.04-.147.37-.274.716-.382,1.039-.108.324-.179.552-.212.684-.221.238-.485.356-.791.356s-.51-.119-.612-.356Z" fill="#feff00"/>
                <path d="M1072.786,82.208c-.028-.317.05-.574.234-.773.184-.198.396-.34.633-.426.237-.086.474-.115.711-.089.236.027.387.106.453.238.066.132.02.314-.137.545-.157.231-.502.512-1.034.842-.085.053-.179.069-.282.049-.103-.02-.194-.052-.272-.099-.079-.046-.146-.099-.203-.159-.057-.059-.092-.102-.103-.129ZM1074.569,77.039c-.454-.7-.651-1.508-.592-2.426.059-.917.297-1.884.714-2.901s.977-2.05,1.682-3.099c.704-1.049,1.464-2.053,2.28-3.01.816-.957,1.643-1.835,2.482-2.634.839-.799,1.619-1.452,2.34-1.96.721-.508,1.332-.845,1.832-1.01.5-.165.82-.096.96.208.029.026.033.083.011.168-.022.086-.054.142-.096.168-1.262.872-2.498,1.835-3.707,2.891-1.209,1.056-2.295,2.158-3.258,3.307-.963,1.149-1.751,2.334-2.363,3.555-.613,1.221-.963,2.439-1.052,3.654-.009.106.042.317.151.634s.193.66.254,1.03c.06.37.048.723-.037,1.059-.084.337-.334.578-.748.723-.251.066-.44.049-.568-.05-.128-.099-.224-.201-.287-.307Z" fill="#feff00"/>
              </g>
            </g>
          </g>
        </g>
      </g>
    </g>
  </g>
</svg>