<?xml version="1.0" encoding="UTF-8"?>
<svg id="b" data-name="Layer 2" xmlns="http://www.w3.org/2000/svg" viewBox="0 0 2570.989 406.551">
  <g id="c" data-name="Layer 2">
    <g>
      <g id="d" data-name="title">
        <path d="M173.035,42.435h-61.266v177.668h-50.506V42.435H0V2.389h173.035v40.046Z" fill="#fff"/>
        <path d="M388.655,2.389v217.714h-50.806v-92.045h-88.46v92.045h-50.804V2.389h50.804v91.002h88.46V2.389h50.806Z" fill="#fff"/>
        <path d="M644.467,111.171c0,15.742-2.716,30.385-8.143,43.931-5.432,13.549-13.076,25.328-22.938,35.34s-21.739,17.855-35.636,23.534-29.312,8.518-46.248,8.518-32.375-2.839-46.321-8.518c-13.948-5.679-25.877-13.522-35.788-23.534-9.915-10.012-17.584-21.791-23.011-35.34-5.432-13.547-8.145-28.19-8.145-43.931s2.714-30.383,8.145-43.931c5.428-13.547,13.097-25.302,23.011-35.265,9.911-9.959,21.84-17.78,35.788-23.459,13.946-5.679,29.385-8.516,46.321-8.516s32.35,2.864,46.248,8.591c13.897,5.73,25.774,13.575,35.636,23.534,9.862,9.963,17.507,21.718,22.938,35.265,5.428,13.549,8.143,28.143,8.143,43.781ZM592.768,111.171c0-10.758-1.396-20.446-4.185-29.063-2.789-8.616-6.798-15.914-12.029-21.891-5.229-5.977-11.631-10.557-19.201-13.747-7.572-3.186-16.189-4.781-25.851-4.781-9.763,0-18.453,1.595-26.074,4.781-7.62,3.19-14.047,7.77-19.276,13.747-5.231,5.977-9.242,13.275-12.029,21.891-2.791,8.618-4.185,18.305-4.185,29.063,0,10.859,1.394,20.598,4.185,29.213,2.787,8.618,6.798,15.914,12.029,21.891,5.229,5.977,11.656,10.535,19.276,13.672,7.62,3.139,16.311,4.708,26.074,4.708,9.661,0,18.279-1.569,25.851-4.708,7.57-3.137,13.972-7.695,19.201-13.672,5.231-5.977,9.24-13.273,12.029-21.891,2.789-8.616,4.185-18.354,4.185-29.213Z" fill="#fff"/>
        <path d="M765.053,180.208c6.773,0,12.825-1.121,18.155-3.362,5.328-2.242,9.838-5.454,13.524-9.639,3.683-4.183,6.5-9.286,8.441-15.316,1.944-6.025,2.914-12.874,2.914-20.545V2.389h50.506v128.956c0,13.35-2.167,25.601-6.5,36.759s-10.535,20.77-18.603,28.838c-8.07,8.068-17.882,14.345-29.438,18.828s-24.556,6.725-39,6.725c-14.546,0-27.594-2.242-39.148-6.725-11.558-4.483-21.37-10.76-29.438-18.828s-14.246-17.681-18.528-28.838c-4.284-11.157-6.425-23.409-6.425-36.759V2.389h50.506v128.806c0,7.671.971,14.519,2.912,20.545,1.944,6.029,4.757,11.159,8.443,15.391,3.685,4.236,8.192,7.473,13.522,9.714,5.328,2.242,11.38,3.362,18.155,3.362Z" fill="#fff"/>
        <path d="M1002.637,107.286h77.402v91.897c-11.157,8.17-23.036,14.098-35.638,17.782s-25.776,5.529-39.523,5.529c-17.93,0-34.243-2.815-48.937-8.443-14.694-5.626-27.269-13.397-37.729-23.311-10.46-9.911-18.528-21.666-24.207-35.263-5.679-13.599-8.518-28.366-8.518-44.306,0-16.236,2.691-31.155,8.07-44.752,5.379-13.597,13.074-25.328,23.086-35.19s22.116-17.533,36.311-23.011,30.058-8.218,47.591-8.218c9.063,0,17.582.746,25.553,2.242,7.967,1.494,15.316,3.537,22.039,6.125,6.725,2.592,12.876,5.679,18.455,9.266,5.578,3.585,10.557,7.47,14.943,11.654l-14.645,22.266c-2.292,3.488-5.255,5.628-8.891,6.425-3.636.799-7.545-.097-11.729-2.689-3.987-2.392-7.748-4.457-11.283-6.202-3.537-1.741-7.148-3.162-10.833-4.258-3.687-1.094-7.572-1.891-11.656-2.392-4.086-.497-8.666-.746-13.747-.746-9.465,0-17.981,1.668-25.551,5.006-7.572,3.338-14.023,8.044-19.351,14.12-5.33,6.078-9.438,13.374-12.329,21.891-2.89,8.518-4.333,18.005-4.333,28.465,0,11.558,1.593,21.818,4.783,30.782,3.186,8.966,7.695,16.538,13.522,22.713,5.827,6.177,12.799,10.885,20.92,14.12,8.117,3.239,17.11,4.856,26.972,4.856,6.074,0,11.581-.598,16.512-1.792,4.931-1.196,9.736-2.789,14.42-4.783v-33.023h-21.518c-3.19,0-5.679-.845-7.473-2.539-1.792-1.692-2.689-3.835-2.689-6.425v-27.794Z" fill="#fff"/>
        <path d="M1304.028,2.389v217.714h-50.806v-92.045h-88.46v92.045h-50.804V2.389h50.804v91.002h88.46V2.389h50.806Z" fill="#fff"/>
        <path d="M1502.61,42.435h-61.264v177.668h-50.506V42.435h-61.264V2.389h173.033v40.046Z" fill="#fff"/>
        <path d="M1772.919,2.389v217.714h-44.529v-125.219c0-2.888.075-6.025.225-9.414.148-3.385.422-6.822.821-10.31l-57.826,111.919c-1.794,3.488-4.212,6.127-7.248,7.92-3.04,1.792-6.5,2.689-10.385,2.689h-6.875c-3.885,0-7.347-.898-10.385-2.689-3.04-1.794-5.454-4.432-7.248-7.92l-57.828-112.219c.3,3.587.547,7.098.748,10.535.199,3.437.3,6.601.3,9.489v125.219h-44.529V2.389h38.55c2.191,0,4.11.053,5.754.15,1.644.101,3.113.399,4.408.896,1.293.501,2.464,1.271,3.512,2.317,1.046,1.046,2.065,2.517,3.062,4.408l56.035,110.426c1.992,3.788,3.908,7.722,5.754,11.806,1.84,4.086,3.61,8.269,5.304,12.551,1.692-4.382,3.46-8.666,5.304-12.851,1.842-4.183,3.81-8.166,5.902-11.954l55.887-109.978c.995-1.891,2.017-3.362,3.062-4.408s2.215-1.816,3.512-2.317c1.293-.497,2.764-.794,4.408-.896,1.644-.097,3.561-.15,5.752-.15h38.552Z" fill="#fff"/>
        <path d="M2010.353,220.103h-39.15c-4.384,0-7.918-1.019-10.608-3.062-2.689-2.041-4.732-4.657-6.127-7.845l-12.851-37.954h-82.781l-12.851,37.954c-1.096,2.789-3.062,5.304-5.902,7.545s-6.35,3.362-10.535,3.362h-39.448L1874.376,2.389h51.702l84.275,217.714ZM1930.111,136.874l-20.172-59.622c-1.494-3.784-3.089-8.243-4.781-13.374-1.696-5.13-3.389-10.683-5.081-16.66-1.494,6.076-3.089,11.706-4.781,16.885-1.696,5.18-3.287,9.663-4.783,13.447l-20.022,59.324h59.62Z" fill="#fff"/>
        <path d="M2205.651,220.103h-45.723c-8.47,0-14.546-3.186-18.23-9.564l-36.161-63.207c-1.696-2.689-3.587-4.655-5.679-5.902-2.092-1.244-5.081-1.867-8.966-1.867h-12.849v80.54h-50.506V2.389h70.828c15.737,0,29.16,1.621,40.269,4.856,11.106,3.239,20.174,7.748,27.197,13.524,7.023,5.778,12.126,12.602,15.316,20.472,3.188,7.87,4.781,16.437,4.781,25.701,0,7.073-.946,13.747-2.839,20.022-1.893,6.277-4.682,12.081-8.366,17.409-3.687,5.33-8.245,10.085-13.672,14.27-5.432,4.183-11.682,7.62-18.753,10.31,3.287,1.694,6.374,3.81,9.264,6.35,2.888,2.542,5.476,5.555,7.77,9.041l46.321,75.759ZM2098.365,104.747c6.873,0,12.724-.871,17.557-2.614,4.83-1.743,8.79-4.159,11.879-7.248s5.328-6.698,6.725-10.833c1.394-4.132,2.092-8.593,2.092-13.374,0-9.564-3.115-17.035-9.339-22.413-6.226-5.379-15.865-8.07-28.913-8.07h-20.322v64.553h20.322Z" fill="#fff"/>
        <path d="M2274.533,90.552h8.068c7.47,0,12.851-2.339,16.139-7.023l49.01-71.128c2.888-3.784,6.001-6.4,9.339-7.845,3.338-1.443,7.495-2.167,12.478-2.167h43.929l-64.551,88.012c-4.582,6.078-9.513,10.46-14.793,13.149,3.786,1.396,7.221,3.34,10.31,5.829,3.087,2.491,5.979,5.73,8.668,9.712l65.745,101.012h-45.125c-2.89,0-5.357-.199-7.395-.598-2.043-.397-3.81-.995-5.306-1.794-1.494-.794-2.789-1.767-3.885-2.912s-2.142-2.467-3.137-3.96l-49.31-75.759c-1.794-2.789-4.062-4.757-6.8-5.902-2.74-1.145-6.451-1.719-11.133-1.719h-12.252v92.643h-50.506V2.389h50.506v88.162Z" fill="#fff"/>
        <path d="M2555.45,46.621c-1.496,2.389-3.064,4.183-4.708,5.379s-3.762,1.794-6.35,1.794c-2.292,0-4.759-.722-7.398-2.167-2.641-1.443-5.628-3.064-8.964-4.856-3.34-1.794-7.15-3.413-11.433-4.858-4.284-1.443-9.165-2.167-14.643-2.167-9.465,0-16.512,2.019-21.143,6.052-4.633,4.035-6.95,9.489-6.95,16.364,0,4.384,1.394,8.02,4.185,10.908,2.787,2.89,6.447,5.379,10.983,7.47,4.532,2.092,9.712,4.011,15.539,5.754,5.829,1.743,11.779,3.687,17.857,5.827,6.074,2.144,12.029,4.657,17.855,7.545,5.829,2.89,11.007,6.575,15.541,11.058,4.532,4.483,8.192,9.937,10.983,16.362,2.789,6.427,4.183,14.173,4.183,23.236,0,10.063-1.743,19.477-5.229,28.242-3.488,8.766-8.543,16.412-15.166,22.936-6.627,6.526-14.795,11.656-24.507,15.391s-20.747,5.604-33.098,5.604c-6.775,0-13.672-.699-20.695-2.094-7.023-1.392-13.822-3.36-20.397-5.902-6.575-2.539-12.752-5.551-18.528-9.039-5.778-3.486-10.811-7.371-15.093-11.656l14.943-23.609c1.196-1.692,2.764-3.113,4.708-4.258,1.942-1.145,4.057-1.719,6.35-1.719,2.989,0,6.001.946,9.041,2.839,3.036,1.893,6.473,3.985,10.31,6.275,3.833,2.292,8.241,4.386,13.224,6.277,4.98,1.893,10.857,2.839,17.632,2.839,9.163,0,16.287-2.019,21.368-6.052,5.081-4.035,7.62-10.436,7.62-19.201,0-5.081-1.396-9.213-4.183-12.404-2.791-3.186-6.451-5.827-10.983-7.918-4.536-2.094-9.69-3.936-15.466-5.529-5.78-1.593-11.706-3.362-17.782-5.306-6.078-1.942-12.006-4.333-17.782-7.173-5.778-2.839-10.932-6.575-15.464-11.206-4.536-4.633-8.196-10.409-10.983-17.335-2.791-6.921-4.185-15.466-4.185-25.626,0-8.168,1.644-16.139,4.931-23.909,3.287-7.768,8.119-14.692,14.495-20.77,6.374-6.074,14.195-10.93,23.459-14.568,9.264-3.636,19.874-5.454,31.828-5.454,6.674,0,13.174.523,19.501,1.569,6.323,1.046,12.326,2.592,18.005,4.631,5.679,2.043,10.983,4.483,15.914,7.323s9.339,6.052,13.224,9.637l-12.551,23.461Z" fill="#fff"/>
      </g>
      <g id="e" data-name="tagline">
        <path d="M363.867,365.688c-.259-1.261.482-2.606,2.217-4.037,1.733-1.429,4.043-2.88,6.937-4.351,2.888-1.471,6.098-2.967,9.633-4.481,3.531-1.514,6.937-2.983,10.221-4.416,3.279-1.429,6.202-2.795,8.764-4.1,2.564-1.303,4.392-2.542,5.49-3.721,2.353-2.525,4.552-5.468,6.601-8.832,2.047-3.364,3.666-6.625,4.86-9.781,1.192-3.154,1.881-6.013,2.067-8.579.184-2.566-.464-4.309-1.952-5.237-1.488-.924-3.869-.799-7.142.379-3.279,1.18-7.726,3.828-13.342,7.949-1.559,1.178-3.569,3.261-6.038,6.246-2.469,2.987-5.134,6.289-7.987,9.905-2.858,3.618-5.774,7.256-8.755,10.914-2.981,3.66-5.794,6.751-8.431,9.274-2.641,2.525-4.978,4.185-7.01,4.986-2.035.801-3.476.148-4.323-1.956.148-.588.43-1.599.847-3.03.415-1.429.831-2.963,1.242-4.605.411-1.64.766-3.176,1.068-4.607.3-1.429.527-2.436.675-3.026,1.092-5.721,2.092-11.313,3.008-16.783.914-5.468,1.788-10.894,2.625-16.279.835-5.381,1.64-10.766,2.42-16.149.774-5.383,1.587-10.894,2.43-16.532.381-2.436.908-4.078,1.577-4.919.669-.839,1.368-1.115,2.098-.821.728.296,1.477,1.072,2.252,2.335.77,1.261,1.423,2.777,1.954,4.542.529,1.767.878,3.703,1.036,5.805.16,2.104.045,4.165-.347,6.184-.253,1.009-.57,2.608-.946,4.793-.377,2.191-.796,4.649-1.25,7.381-.46,2.736-.955,5.616-1.482,8.644-.531,3.03-1.054,5.912-1.569,8.644-.513,2.734-.959,5.194-1.338,7.381-.377,2.187-.632,3.786-.77,4.795,2.856-1.346,5.421-3.006,7.695-4.984,2.272-1.976,4.497-3.995,6.678-6.058,2.177-2.059,4.457-4.055,6.834-5.993,2.375-1.933,5.051-3.573,8.024-4.921,8.18-3.364,14.714-5.192,19.602-5.49,4.886-.292,8.38.507,10.486,2.4,2.104,1.893,2.941,4.605,2.513,8.137-.43,3.533-1.873,7.466-4.337,11.8-2.462,4.331-5.798,8.832-10.006,13.5-4.212,4.67-9.033,9.043-14.467,13.123-5.44,4.082-11.402,7.635-17.892,10.661-6.494,3.03-13.245,5.049-20.259,6.06l-1.293-1.011c-.541-.588-.849-.965-.918-1.137Z" fill="#feff00"/>
        <path d="M440.14,360.262c-2.085-3.109-2.933-6.581-2.544-10.407.385-3.828,1.392-7.843,3.024-12.051,1.627-4.207,3.61-8.455,5.948-12.744,2.335-4.291,4.463-8.433,6.384-12.43,1.919-3.995,3.374-7.738,4.368-11.23.987-3.49.94-6.498-.144-9.021-.582-1.344-1.648-1.996-3.204-1.956-1.559.043-3.263.211-5.111.505-1.854.296-3.656.399-5.411.314-1.755-.081-3.129-.882-4.126-2.398.201-.334.742-.776,1.625-1.325.88-.543,1.504-.859,1.869-.944,10.59-1.092,19.015-.314,25.287,2.333,6.269,2.651,10.859,6.394,13.772,11.23,2.912,4.84,4.359,10.371,4.345,16.593-.016,6.226-1.023,12.412-3.02,18.551-2.002,6.141-4.753,11.84-8.245,17.095-3.5,5.259-7.268,9.317-11.309,12.179-4.045,2.858-8.143,4.12-12.296,3.784-4.157-.336-7.896-3.028-11.212-8.076ZM450.186,355.848c.053.251.31.588.78,1.009.464.422.951.882,1.457,1.386.501.507.993.949,1.471,1.325.478.379.819.612,1.03.693,4.682-1.765,8.439-4.163,11.26-7.193,2.821-3.026,4.897-6.39,6.23-10.093,1.33-3.699,2.075-7.59,2.242-11.672.164-4.078-.083-8.012-.736-11.798-.657-3.784-1.644-7.276-2.961-10.472-1.319-3.196-2.698-5.805-4.139-7.823-.389,1.094-1.042,2.775-1.954,5.047-.914,2.272-1.903,4.84-2.963,7.697-1.062,2.86-2.225,5.89-3.484,9.086-1.263,3.196-2.458,6.244-3.585,9.147-1.131,2.904-2.15,5.488-3.064,7.76-.914,2.27-1.569,3.956-1.954,5.047-.328.843-.535,1.79-.626,2.841-.095,1.05-.093,2.081-.004,3.089.091,1.011.225,1.956.407,2.839.176.884.375,1.579.592,2.083Z" fill="#feff00"/>
        <path d="M497.518,360.262c-2.085-3.109-2.933-6.581-2.544-10.407.385-3.828,1.392-7.843,3.024-12.051,1.627-4.207,3.61-8.455,5.948-12.744,2.335-4.291,4.463-8.433,6.384-12.43,1.919-3.995,3.377-7.738,4.368-11.23.987-3.49.942-6.498-.144-9.021-.582-1.344-1.648-1.996-3.204-1.956-1.559.043-3.263.211-5.113.505-1.852.296-3.654.399-5.407.314-1.757-.081-3.131-.882-4.126-2.398.199-.334.738-.776,1.621-1.325.882-.543,1.506-.859,1.869-.944,10.592-1.092,19.019-.314,25.289,2.333,6.267,2.651,10.859,6.394,13.772,11.23,2.912,4.84,4.359,10.371,4.345,16.593-.014,6.226-1.023,12.412-3.022,18.551-2,6.141-4.751,11.84-8.245,17.095-3.498,5.259-7.266,9.317-11.309,12.179-4.041,2.858-8.141,4.12-12.294,3.784-4.159-.336-7.896-3.028-11.212-8.076ZM507.567,355.848c.049.251.308.588.778,1.009.464.422.953.882,1.457,1.386.501.507.991.949,1.471,1.325.478.379.819.612,1.03.693,4.684-1.765,8.437-4.163,11.258-7.193,2.825-3.026,4.899-6.39,6.23-10.093,1.33-3.699,2.077-7.59,2.244-11.672.164-4.078-.083-8.012-.736-11.798-.657-3.784-1.642-7.276-2.961-10.472s-2.698-5.805-4.139-7.823c-.391,1.094-1.04,2.775-1.954,5.047s-1.903,4.84-2.963,7.697c-1.062,2.86-2.225,5.89-3.484,9.086-1.263,3.196-2.456,6.244-3.585,9.147-1.131,2.904-2.15,5.488-3.064,7.76-.914,2.27-1.567,3.956-1.956,5.047-.326.843-.533,1.79-.624,2.841-.093,1.05-.093,2.081-.004,3.089.091,1.011.225,1.956.405,2.839.178.884.377,1.579.596,2.083Z" fill="#feff00"/>
        <path d="M553.575,357.992c.452-1.344,1.372-3.299,2.762-5.867,1.386-2.566,2.762-5.3,4.12-8.202s2.483-5.782,3.374-8.642c.888-2.86,1.123-5.28.703-7.256-.424-1.976-1.725-3.302-3.903-3.976-2.183-.671-5.685-.292-10.513,1.137-2.396-.505-3.65-1.218-3.76-2.144-.111-.926.497-1.976,1.822-3.156,1.325-1.178,3.109-2.46,5.349-3.849,2.242-1.388,4.518-2.817,6.836-4.289,2.319-1.473,4.43-2.925,6.336-4.355,1.909-1.429,3.141-2.817,3.711-4.163.053-.673.223-2.144.507-4.416.282-2.272.57-4.899.861-7.886.29-2.985.657-6.161,1.103-9.528.442-3.362.815-6.563,1.117-9.588.302-3.03.588-5.659.861-7.888.272-2.225.446-3.721.523-4.479.158-1.09.448-2.122.863-3.091.413-.967,1.048-1.786,1.905-2.46.857-.673,1.913-1.115,3.17-1.325,1.255-.209,2.793-.063,4.617.442-.231,3.2-.565,6.814-1.005,10.851-.44,4.039-.855,8.202-1.244,12.493-.387,4.291-.693,8.581-.908,12.87-.217,4.291-.219,8.287,0,11.988,1.311-.673,2.979-1.83,4.998-3.47,2.015-1.642,4.187-3.447,6.518-5.426,2.327-1.976,4.745-3.952,7.248-5.93,2.501-1.976,4.822-3.575,6.964-4.795,2.136-1.218,4.035-1.933,5.695-2.146,1.656-.209,2.811.442,3.462,1.956.071.17.041.527-.097,1.074s-.296.944-.472,1.198c-2.335,3.366-5.492,6.477-9.477,9.337-3.987,2.862-8.006,5.636-12.061,8.328-4.057,2.694-7.702,5.448-10.928,8.265-3.231,2.819-5.302,5.825-6.218,9.023.863.673,2.075,1.765,3.646,3.279l12.203,10.977c2.355,2.019,4.558,3.976,6.607,5.869,2.043,1.893,3.851,3.595,5.421,5.109l3.678,3.154c.561.505,1.443,1.325,2.649,2.46,1.202,1.137,2.209,2.379,3.02,3.723.805,1.348,1.109,2.651.91,3.912-.205,1.261-1.5,2.315-3.887,3.154-.251.085-.75.126-1.494.126s-1.222-.041-1.429-.126c-4.495-5.381-9.574-10.829-15.241-16.339-5.665-5.507-11.943-10.284-18.838-14.321-.306.756-.774,1.936-1.405,3.533-.632,1.599-1.4,3.407-2.306,5.426-.91,2.021-1.842,4.145-2.803,6.372-.963,2.231-1.925,4.353-2.888,6.372-.967,2.021-1.82,3.83-2.566,5.426-.746,1.599-1.325,2.777-1.745,3.533-.221.424-.699,1.074-1.437,1.956-.738.884-1.615,1.749-2.627,2.588-1.013.841-2.094,1.494-3.241,1.956s-2.244.484-3.283.063c.085-.336.199-.902.343-1.704.142-.799.336-1.68.58-2.649.241-.967.497-1.871.766-2.714.268-.839.444-1.429.529-1.765Z" fill="#feff00"/>
        <path d="M672.541,364.68c1.07-3.364,2.106-6.919,3.105-10.663.995-3.743,1.854-7.507,2.574-11.293.722-3.786,1.293-7.55,1.719-11.293s.6-7.298.527-10.663c-.065-6.139-.922-10.831-2.574-14.069-1.65-3.237-3.798-4.961-6.437-5.174-2.641-.209-5.492,1.094-8.545,3.912-3.058,2.819-5.967,7.215-8.725,13.188-.464.924-1.107,2.353-1.936,4.289-.831,1.936-1.753,4.124-2.764,6.56-1.015,2.442-2.067,5.03-3.152,7.762-1.088,2.734-2.138,5.32-3.152,7.758-1.015,2.442-1.877,4.627-2.59,6.563-.717,1.936-1.248,3.364-1.593,4.291-1.026,1.346-2.515,2.144-4.469,2.396-1.956.253-3.683.17-5.182-.251l10.622-65.613c.158-1.092.74-2.039,1.745-2.839.999-.799,2.057-1.346,3.162-1.64s2.13-.272,3.079.063c.946.338,1.445,1.094,1.494,2.27l1.107,19.56c5.136-6.311,9.554-10.788,13.259-13.439,3.701-2.649,6.881-4.015,9.538-4.102,2.657-.083,4.947.843,6.871,2.779,1.919,1.936,3.595,4.268,5.03,7,1.435,2.736,2.74,5.638,3.92,8.707,1.175,3.073,2.464,5.701,3.865,7.888,7.675-11.862,15.182-20.421,22.519-25.678,7.335-5.255,13.666-7.424,18.994-6.498,5.326.926,9.238,4.858,11.739,11.795,2.497,6.942,2.862,16.678,1.09,29.211-.255,1.938-.722,4.481-1.398,7.637-.679,3.152-1.394,6.244-2.156,9.272-.758,3.028-1.477,5.659-2.15,7.886-.675,2.231-1.149,3.429-1.421,3.597l-3.46,2.144-4.939-4.291c1.786-4.372,3.129-8.936,4.037-13.69.906-4.751,1.471-9.526,1.702-14.323.229-4.793.227-9.463-.008-14.003-.235-4.544-.545-8.792-.928-12.746-.762-3.364-2.219-5.318-4.372-5.867-2.158-.545-4.552-.253-7.185.884-2.635,1.137-5.209,2.819-7.714,5.049-2.509,2.229-4.542,4.394-6.1,6.496-1.003,1.263-2.26,2.947-3.76,5.049-1.502,2.104-2.977,4.207-4.418,6.309-1.449,2.102-2.714,3.954-3.802,5.553-1.088,1.597-1.723,2.521-1.899,2.775-.839,1.514-2.039,4.122-3.597,7.821-1.561,3.705-3.184,7.657-4.868,11.862-1.686,4.207-3.229,8.182-4.627,11.923-1.396,3.745-2.345,6.374-2.837,7.888-.316,1.261-.955,1.978-1.913,2.144-.961.166-1.97.083-3.032-.251-1.178-.336-2.507-.967-3.993-1.893Z" fill="#feff00"/>
        <path d="M751.235,364.68c-1.407-3.533-1.739-7.108-1.003-10.725s1.921-7.318,3.559-11.104c.409-1.178,1.141-2.943,2.191-5.3,1.048-2.353,2.217-4.961,3.51-7.821,1.289-2.862,2.681-5.888,4.171-9.086,1.49-3.196,2.878-6.224,4.171-9.086,1.289-2.86,2.473-5.405,3.549-7.635,1.074-2.225,1.863-3.889,2.369-4.984,1.802-3.533,3.559-6.538,5.274-9.021,1.709-2.481,3.681-4.396,5.91-5.742,2.227-1.346,4.872-2.061,7.931-2.146,3.054-.081,6.846.464,11.364,1.642.551.085,1.103.399,1.654.946.549.547.851.944.902,1.198-.047,1.096-.039,2.777.022,5.047.059,2.274.128,4.86.203,7.762.071,2.9.144,5.93.211,9.086.069,3.152.14,6.181.215,9.084.071,2.902.14,5.488.203,7.76.057,2.27.124,3.954.195,5.047.219,5.973,1.297,10.115,3.239,12.428,1.94,2.315,4.333,3.514,7.179,3.595,2.843.085,5.969-.608,9.376-2.081,3.405-1.469,6.804-3.026,10.196-4.668,3.391-1.64,6.552-3.048,9.487-4.228,2.931-1.178,5.274-1.386,7.035-.63-.401,1.599-1.309,3.156-2.722,4.67-1.411,1.512-2.995,2.923-4.755,4.226-1.763,1.305-3.638,2.505-5.63,3.597-1.994,1.092-3.833,2.019-5.511,2.775-7.201,3.113-12.969,4.755-17.308,4.921-4.341.168-7.801-.547-10.379-2.144-2.582-1.597-4.439-3.786-5.573-6.563-1.139-2.775-2.063-5.592-2.779-8.453-.715-2.86-1.453-5.405-2.209-7.635-.76-2.225-1.984-3.636-3.666-4.226-.62,1.092-1.812,2.985-3.575,5.677-1.765,2.694-3.658,5.553-5.677,8.581-2.023,3.03-3.946,5.89-5.764,8.581-1.822,2.691-3.103,4.584-3.833,5.677-.336.422-1.023,1.22-2.063,2.398-1.042,1.18-2.308,2.46-3.802,3.849-1.496,1.388-3.123,2.734-4.88,4.037-1.763,1.305-3.478,2.315-5.144,3.028-1.67.713-3.218.949-4.645.693-1.427-.251-2.493-1.261-3.194-3.026ZM769.516,327.456c-.484,1.011-1.09,2.862-1.822,5.551-.736,2.694-1.48,5.553-2.24,8.581-.76,3.03-1.451,5.89-2.067,8.581-.62,2.694-.953,4.586-.997,5.679,5.132-4.459,10.044-9.653,14.742-15.585,4.698-5.93,8.674-12.069,11.929-18.421s5.498-12.659,6.729-18.928c1.228-6.265.94-11.964-.867-17.097-2.604,2.61-5.259,5.89-7.969,9.844-2.714,3.954-5.213,7.971-7.497,12.051-2.286,4.08-4.305,7.906-6.062,11.481-1.755,3.575-3.048,6.329-3.879,8.263Z" fill="#feff00"/>
        <path d="M846.073,365.436c-2.533,2.777-4.432,4.183-5.703,4.228-1.273.041-2.1-.884-2.485-2.777-.383-1.893-.401-4.562-.051-8.012s.967-7.276,1.85-11.483c.882-4.203,1.962-8.622,3.239-13.249,1.275-4.625,2.594-9.084,3.958-13.374,1.36-4.291,2.72-8.222,4.078-11.8,1.354-3.573,2.552-6.39,3.583-8.451,1.034-2.061,1.854-3.176,2.473-3.344.614-.168.902.967.863,3.407,4.173-2.021,8.607-3.932,13.303-5.744,4.692-1.806,9.457-3.322,14.29-4.54,4.832-1.218,9.615-1.996,14.341-2.335,4.724-.334,9.149-.043,13.275.882.18,1.094-.077,2.357-.78,3.786-.703,1.431-2.025,2.357-3.962,2.777-1.771-.251-4.147-.377-7.126-.377s-6.175.168-9.582.503c-3.409.338-6.869.884-10.383,1.642-3.516.756-6.771,1.745-9.769,2.963-3.002,1.222-5.547,2.694-7.641,4.418-2.098,1.723-3.437,3.766-4.029,6.119l-13.743,54.762Z" fill="#feff00"/>
        <path d="M917.18,357.992c.452-1.344,1.372-3.299,2.762-5.867,1.386-2.566,2.762-5.3,4.12-8.202s2.483-5.782,3.374-8.642c.888-2.86,1.123-5.28.703-7.256-.424-1.976-1.725-3.302-3.903-3.976-2.183-.671-5.685-.292-10.513,1.137-2.396-.505-3.65-1.218-3.76-2.144-.111-.926.497-1.976,1.822-3.156,1.325-1.178,3.109-2.46,5.349-3.849,2.242-1.388,4.518-2.817,6.836-4.289,2.319-1.473,4.43-2.925,6.336-4.355,1.909-1.429,3.141-2.817,3.711-4.163.053-.673.223-2.144.507-4.416.282-2.272.57-4.899.861-7.886.29-2.985.657-6.161,1.103-9.528.442-3.362.815-6.563,1.117-9.588.302-3.03.588-5.659.861-7.888.272-2.225.446-3.721.523-4.479.158-1.09.448-2.122.863-3.091.413-.967,1.048-1.786,1.905-2.46.857-.673,1.913-1.115,3.17-1.325,1.255-.209,2.793-.063,4.617.442-.231,3.2-.565,6.814-1.005,10.851-.44,4.039-.855,8.202-1.244,12.493-.387,4.291-.693,8.581-.908,12.87-.217,4.291-.219,8.287,0,11.988,1.311-.673,2.979-1.83,4.998-3.47,2.015-1.642,4.187-3.447,6.518-5.426,2.327-1.976,4.745-3.952,7.248-5.93,2.501-1.976,4.822-3.575,6.964-4.795,2.136-1.218,4.035-1.933,5.695-2.146,1.656-.209,2.811.442,3.462,1.956.071.17.041.527-.097,1.074s-.296.944-.472,1.198c-2.335,3.366-5.492,6.477-9.477,9.337-3.987,2.862-8.006,5.636-12.061,8.328-4.057,2.694-7.702,5.448-10.928,8.265-3.231,2.819-5.302,5.825-6.218,9.023.863.673,2.075,1.765,3.646,3.279l12.203,10.977c2.355,2.019,4.558,3.976,6.607,5.869,2.043,1.893,3.851,3.595,5.421,5.109l3.678,3.154c.561.505,1.443,1.325,2.649,2.46,1.202,1.137,2.209,2.379,3.02,3.723.805,1.348,1.109,2.651.91,3.912-.205,1.261-1.5,2.315-3.887,3.154-.251.085-.75.126-1.494.126s-1.222-.041-1.429-.126c-4.495-5.381-9.574-10.829-15.241-16.339-5.665-5.507-11.943-10.284-18.838-14.321-.306.756-.774,1.936-1.405,3.533-.632,1.599-1.4,3.407-2.306,5.426-.91,2.021-1.842,4.145-2.803,6.372-.963,2.231-1.925,4.353-2.888,6.372-.967,2.021-1.82,3.83-2.566,5.426-.746,1.599-1.325,2.777-1.745,3.533-.221.424-.699,1.074-1.437,1.956-.738.884-1.615,1.749-2.627,2.588-1.013.841-2.094,1.494-3.241,1.956s-2.244.484-3.283.063c.085-.336.199-.902.343-1.704.142-.799.336-1.68.58-2.649.241-.967.497-1.871.766-2.714.268-.839.444-1.429.529-1.765Z" fill="#feff00"/>
        <path d="M994.37,364.68c-2.371-1.514-3.873-3.64-4.503-6.374-.634-2.732-.677-5.3-.132-7.695.543-2.398,1.437-4.248,2.683-5.553,1.242-1.301,2.509-1.325,3.798-.063-1.372,4.544-1.09,7.993.841,10.348,1.927,2.355,4.627,3.828,8.089,4.414,3.462.59,7.343.424,11.646-.503,4.299-.926,8.16-2.377,11.579-4.355,3.419-1.974,6.029-4.392,7.837-7.256,1.806-2.858,1.976-5.93.509-9.209-2.369-2.438-5.128-4.815-8.269-7.13-3.145-2.312-6.321-4.605-9.536-6.875-3.21-2.274-6.295-4.607-9.242-7.004-2.955-2.396-5.466-4.941-7.543-7.633-.186-.17-.211-.525-.073-1.074.138-.547.338-.902.612-1.072.991-.758,2.434-1.933,4.327-3.533,1.887-1.597,4.062-3.407,6.52-5.426,2.454-2.021,5.047-4.143,7.787-6.372,2.736-2.229,5.332-4.353,7.789-6.372,2.454-2.021,4.657-3.828,6.605-5.426s3.417-2.777,4.41-3.533c1.984-1.516,3.839-2.4,5.563-2.651,1.725-.253,4.062-.083,7.01.503-.201.338-.845,1.074-1.931,2.211-1.086,1.133-1.846,1.873-2.272,2.207-1.171,1.009-3.332,2.756-6.473,5.237-3.143,2.483-6.504,5.132-10.075,7.949-3.573,2.819-6.931,5.468-10.075,7.949-3.145,2.483-5.346,4.185-6.611,5.109-1.171,1.011-1.125,2.191.144,3.535,1.267,1.348,3.178,2.86,5.738,4.542,2.558,1.684,5.47,3.555,8.735,5.616,3.263,2.061,6.289,4.268,9.08,6.623,2.789,2.355,5.022,4.88,6.696,7.572,1.672,2.691,2.213,5.571,1.613,8.642-.6,3.073-2.608,6.289-6.034,9.653-3.421,3.364-8.934,6.939-16.53,10.725-2.359,1.18-4.876,2.189-7.552,3.028-2.675.841-5.367,1.409-8.076,1.702-2.712.296-5.342.274-7.892-.063-2.554-.334-4.815-1.135-6.792-2.396Z" fill="#feff00"/>
        <path d="M1169.64,364.68c-.148-.336-.282-.821-.411-1.451-.128-.63-.245-1.303-.353-2.019-.107-.713-.229-1.366-.367-1.956-.14-.588-.176-1.011-.113-1.263.118-.926.334-2.355.647-4.291.314-1.936.661-4.12,1.046-6.56.381-2.44.831-5.026,1.346-7.76.513-2.732.961-5.32,1.346-7.76.381-2.438.758-4.627,1.131-6.56.369-1.933.673-3.362.904-4.291-.211-.083-.713-.126-1.514-.126-.805,0-1.332.043-1.581.126-.959.168-2.608.464-4.949.882-2.339.424-4.838.886-7.483,1.39l-7.535,1.261c-2.402.422-4.023.715-4.866.884l-6.169-5.553,36.282-7.57,17.943-48.201c1.238-3.111,3.22-5.76,5.948-7.949,2.726-2.185,5.738-3.912,9.035-5.174,3.295-1.259,6.55-2.019,9.767-2.27s5.877-.02,7.991.693c2.114.715,3.409,1.938,3.895,3.66.482,1.725-.359,3.932-2.521,6.623-1.952.928-3.393,1.305-4.325,1.137s-1.575-.57-1.933-1.2c-.357-.63-.602-1.366-.736-2.207-.134-.839-.424-1.514-.869-2.019-1.777-1.597-3.565-2.124-5.363-1.577-1.8.545-3.589,1.848-5.365,3.912-1.781,2.061-3.516,4.647-5.215,7.758-1.698,3.115-3.283,6.457-4.753,10.032-1.471,3.575-2.837,7.193-4.098,10.851-1.263,3.66-2.359,7.004-3.291,10.03-.932,3.03-1.662,5.598-2.189,7.697l-.951,3.786c2.165.505,4.724.462,7.683-.128,2.955-.588,6.032-1.429,9.228-2.521,3.198-1.092,6.38-2.252,9.552-3.472,3.17-1.216,6.102-2.165,8.794-2.837,2.687-.673,5.006-.884,6.95-.632,1.94.253,3.308,1.305,4.106,3.156l-6.749,4.289-38.684,10.979-3.634,2.146c-.158.168-.541,1.346-1.145,3.531-.608,2.189-1.289,4.795-2.049,7.825-.76,3.026-1.51,6.119-2.242,9.274-.736,3.154-1.299,5.74-1.688,7.758-.122.928-.039,2.317.243,4.165.28,1.85.415,3.828.401,5.93-.01,2.104-.389,4.062-1.127,5.867-.742,1.81-2.237,3.093-4.491,3.849-1.368.422-2.519.336-3.462-.251s-1.613-1.22-2.017-1.893Z" fill="#feff00"/>
        <path d="M1238.786,360.262c-2.085-3.109-2.933-6.581-2.544-10.407.385-3.828,1.392-7.843,3.024-12.051,1.627-4.207,3.61-8.455,5.948-12.744,2.335-4.291,4.463-8.433,6.384-12.43,1.919-3.995,3.377-7.738,4.368-11.23.987-3.49.942-6.498-.144-9.021-.582-1.344-1.648-1.996-3.204-1.956-1.559.043-3.263.211-5.113.505-1.852.296-3.654.399-5.407.314-1.757-.081-3.131-.882-4.126-2.398.199-.334.738-.776,1.621-1.325.882-.543,1.506-.859,1.869-.944,10.592-1.092,19.019-.314,25.289,2.333,6.267,2.651,10.859,6.394,13.772,11.23,2.912,4.84,4.359,10.371,4.345,16.593-.014,6.226-1.023,12.412-3.022,18.551-2,6.141-4.751,11.84-8.245,17.095-3.498,5.259-7.266,9.317-11.309,12.179-4.041,2.858-8.141,4.12-12.294,3.784-4.159-.336-7.896-3.028-11.212-8.076ZM1248.834,355.848c.049.251.308.588.778,1.009.464.422.953.882,1.457,1.386.501.507.991.949,1.471,1.325.478.379.819.612,1.03.693,4.684-1.765,8.437-4.163,11.258-7.193,2.825-3.026,4.899-6.39,6.23-10.093,1.33-3.699,2.077-7.59,2.244-11.672.164-4.078-.083-8.012-.736-11.798-.657-3.784-1.642-7.276-2.961-10.472s-2.698-5.805-4.139-7.823c-.391,1.094-1.04,2.775-1.954,5.047s-1.903,4.84-2.963,7.697c-1.062,2.86-2.225,5.89-3.484,9.086-1.263,3.196-2.456,6.244-3.585,9.147-1.131,2.904-2.15,5.488-3.064,7.76-.914,2.27-1.567,3.956-1.956,5.047-.326.843-.533,1.79-.624,2.841-.093,1.05-.093,2.081-.004,3.089.091,1.011.225,1.956.405,2.839.178.884.377,1.579.596,2.083Z" fill="#feff00"/>
        <path d="M1294.522,365.436c-2.531,2.777-4.432,4.183-5.703,4.228-1.273.041-2.1-.884-2.483-2.777-.385-1.893-.401-4.562-.053-8.012.351-3.449.965-7.276,1.848-11.483.884-4.203,1.964-8.622,3.241-13.249,1.275-4.625,2.594-9.084,3.958-13.374,1.362-4.291,2.72-8.222,4.078-11.8,1.354-3.573,2.552-6.39,3.583-8.451,1.034-2.061,1.854-3.176,2.473-3.344.614-.168.902.967.863,3.407,4.173-2.021,8.607-3.932,13.303-5.744,4.692-1.806,9.457-3.322,14.292-4.54,4.832-1.218,9.613-1.996,14.339-2.335,4.724-.334,9.149-.043,13.273.882.182,1.094-.077,2.357-.778,3.786-.701,1.431-2.025,2.357-3.962,2.777-1.771-.251-4.147-.377-7.126-.377s-6.175.168-9.582.503c-3.411.338-6.869.884-10.383,1.642-3.514.756-6.771,1.745-9.769,2.963-3.002,1.222-5.549,2.694-7.641,4.418-2.096,1.723-3.437,3.766-4.029,6.119l-13.743,54.762Z" fill="#feff00"/>
        <path d="M1498.094,404.047c-2.507-1.431-4.011-3.324-4.505-5.679-.499-2.355-.33-4.963.503-7.823.829-2.86,2.158-5.865,3.982-9.021s3.792-6.204,5.906-9.149,4.232-5.677,6.358-8.2c2.12-2.525,3.899-4.584,5.332-6.184.647-.756,1.688-1.933,3.123-3.533,1.431-1.597,3.089-3.409,4.97-5.428l11.763-12.616c1.883-2.019,3.595-3.826,5.144-5.428,1.544-1.595,2.7-2.775,3.466-3.533,1.565-3.952,1.972-7.065,1.224-9.337-.748-2.27-2.217-3.826-4.414-4.668-2.197-.839-4.925-1.05-8.18-.632-3.259.424-6.688,1.305-10.292,2.651s-7.185,3.05-10.738,5.111c-3.557,2.061-6.68,4.351-9.378,6.875-.792.424-2.244,1.411-4.353,2.967s-4.647,3.449-7.614,5.677c-2.965,2.229-6.238,4.649-9.813,7.256-3.579,2.608-7.199,5.154-10.857,7.633-3.66,2.483-7.187,4.775-10.577,6.879-3.395,2.104-6.471,3.743-9.232,4.921-2.76,1.18-5.038,1.81-6.834,1.893-1.798.085-2.839-.673-3.127-2.272-.093-.083-.116-.334-.067-.758.047-.418.132-.861.247-1.325.116-.46.253-.902.418-1.323.162-.42.332-.758.511-1.009.44-.839,1.37-2.606,2.791-5.3,1.419-2.691,3.073-5.845,4.955-9.463,1.879-3.618,3.912-7.485,6.094-11.609,2.177-4.12,4.209-7.991,6.092-11.609,1.881-3.614,3.557-6.749,5.024-9.4,1.465-2.649,2.477-4.396,3.034-5.237.418-.756,1.415-1.767,2.995-3.026,1.575-1.263,3.271-2.315,5.087-3.156,1.816-.839,3.488-1.22,5.014-1.137,1.526.085,2.513,1.054,2.967,2.904-1.463,1.261-3.279,3.237-5.442,5.928-2.167,2.694-4.388,5.723-6.664,9.086-2.28,3.366-4.574,6.919-6.887,10.663-2.317,3.745-4.394,7.341-6.232,10.788-1.84,3.449-3.295,6.623-4.37,9.526-1.07,2.904-1.581,5.154-1.52,6.751,6.015-4.795,12.679-9.882,19.992-15.267,7.306-5.381,14.661-10.472,22.055-15.267,7.391-4.795,14.596-8.96,21.613-12.493,7.019-3.533,13.261-5.805,18.731-6.814,5.468-1.009,9.911-.442,13.326,1.702,3.415,2.148,5.271,6.5,5.575,13.062l24.268-13.125h8.94c.44,2.357.008,3.956-1.291,4.795-1.301.843-3.038,1.496-5.217,1.956-2.179.464-4.57.969-7.171,1.516-2.602.545-4.945,1.66-7.029,3.344-2.085,1.682-3.709,4.163-4.876,7.444-1.169,3.281-1.415,7.908-.734,13.879.549,4.207.58,8.539.089,12.997-.488,4.459-1.682,8.875-3.581,13.249-.831,1.936-2.377,4.562-4.645,7.886-2.266,3.322-5,6.792-8.198,10.409-3.202,3.618-6.779,7.148-10.74,10.6-3.96,3.447-8.03,6.307-12.211,8.579s-8.401,3.678-12.665,4.228c-4.264.545-8.31-.233-12.136-2.335ZM1503.771,393.069c.116,3.198,1.127,5.217,3.036,6.058s4.368.756,7.371-.251c3.004-1.011,6.352-2.819,10.042-5.426,3.689-2.608,7.282-5.723,10.768-9.339,3.486-3.618,6.698-7.635,9.643-12.049,2.941-4.418,5.192-8.938,6.755-13.565,1.561-4.625,2.229-9.23,2.006-13.816-.225-4.584-1.721-8.895-4.489-12.932-2.998,1.431-6.181,3.616-9.556,6.558-3.377,2.947-6.715,6.311-10.01,10.095-3.302,3.786-6.516,7.803-9.645,12.051s-5.865,8.411-8.204,12.491c-2.343,4.08-4.216,7.888-5.618,11.421-1.402,3.535-2.104,6.435-2.1,8.705Z" fill="#feff00"/>
        <path d="M1582.62,360.262c-2.085-3.109-2.933-6.581-2.544-10.407.385-3.828,1.392-7.843,3.024-12.051,1.627-4.207,3.61-8.455,5.948-12.744,2.335-4.291,4.463-8.433,6.384-12.43,1.919-3.995,3.374-7.738,4.368-11.23.987-3.49.94-6.498-.144-9.021-.582-1.344-1.648-1.996-3.204-1.956-1.559.043-3.263.211-5.111.505-1.854.296-3.656.399-5.411.314-1.755-.081-3.129-.882-4.126-2.398.201-.334.742-.776,1.625-1.325.88-.543,1.504-.859,1.869-.944,10.59-1.092,19.015-.314,25.287,2.333,6.269,2.651,10.859,6.394,13.772,11.23,2.912,4.84,4.359,10.371,4.345,16.593-.016,6.226-1.023,12.412-3.02,18.551-2.002,6.141-4.753,11.84-8.245,17.095-3.5,5.259-7.268,9.317-11.309,12.179-4.045,2.858-8.143,4.12-12.296,3.784-4.157-.336-7.896-3.028-11.212-8.076ZM1592.667,355.848c.053.251.31.588.78,1.009.464.422.951.882,1.457,1.386.501.507.993.949,1.471,1.325.478.379.819.612,1.03.693,4.682-1.765,8.439-4.163,11.26-7.193,2.821-3.026,4.897-6.39,6.23-10.093,1.33-3.699,2.075-7.59,2.242-11.672.164-4.078-.083-8.012-.736-11.798-.657-3.784-1.644-7.276-2.961-10.472-1.319-3.196-2.698-5.805-4.139-7.823-.389,1.094-1.042,2.775-1.954,5.047-.914,2.272-1.903,4.84-2.963,7.697-1.062,2.86-2.225,5.89-3.484,9.086-1.263,3.196-2.458,6.244-3.585,9.147-1.131,2.904-2.15,5.488-3.064,7.76-.914,2.27-1.569,3.956-1.954,5.047-.328.843-.535,1.79-.626,2.841-.095,1.05-.093,2.081-.004,3.089.091,1.011.225,1.956.407,2.839.176.884.375,1.579.592,2.083Z" fill="#feff00"/>
        <path d="M1631.576,360.262c-.148-.332-.292-.902-.432-1.702-.144-.799-.239-1.682-.282-2.649-.045-.967-.077-1.871-.093-2.714-.018-.841.016-1.431.101-1.765l12.095-48.201c.191-.756.726-1.303,1.617-1.642.884-.334,1.854-.543,2.906-.628,1.054-.085,2.055-.085,3.008,0s1.591.168,1.915.251c-.391,1.094-.869,2.775-1.439,5.047s-1.244,4.84-2.019,7.697c-.776,2.86-1.536,5.89-2.28,9.086-.746,3.196-1.486,6.267-2.225,9.209l-1.931,7.697c-.57,2.27-.934,3.956-1.092,5.047-.957,4.712-.89,7.993.193,9.842,1.084,1.852,2.758,2.714,5.024,2.588s4.848-1.052,7.744-2.777c2.896-1.723,5.705-3.786,8.429-6.181,2.72-2.398,5.124-4.901,7.215-7.509,2.083-2.606,3.383-4.921,3.889-6.939l8.233-32.806h12.035c-.717,1.936-1.636,4.461-2.758,7.57-1.127,3.113-2.173,6.479-3.135,10.095-.967,3.618-1.806,7.298-2.515,11.042-.709,3.741-1.052,7.276-1.026,10.6.024,3.324.527,6.224,1.512,8.705.981,2.481,2.629,4.248,4.945,5.3,2.315,1.052,5.393,1.22,9.242.505,3.847-.715,8.68-2.629,14.505-5.742.482,2.189-.448,4.291-2.785,6.309-2.343,2.019-5.192,3.786-8.551,5.3-3.362,1.514-6.85,2.629-10.466,3.344-3.62.715-6.579.861-8.879.442-.324-.083-.784-.422-1.38-1.011-.6-.588-.979-1.007-1.145-1.261-.312-.586-.835-1.702-1.569-3.344-.736-1.64-1.498-3.385-2.296-5.235s-1.528-3.618-2.193-5.3c-.669-1.682-1.147-2.86-1.435-3.535-.92.928-2.42,2.335-4.497,4.228-2.081,1.893-4.505,3.912-7.28,6.058-2.775,2.144-5.687,4.163-8.741,6.056-3.052,1.893-5.999,3.239-8.834,4.037-2.839.801-5.438.884-7.799.251-2.365-.63-4.207-2.416-5.531-5.363Z" fill="#feff00"/>
        <path d="M1713.787,365.436c-2.533,2.777-4.432,4.183-5.703,4.228-1.273.041-2.1-.884-2.485-2.777-.383-1.893-.401-4.562-.051-8.012s.967-7.276,1.85-11.483c.882-4.203,1.962-8.622,3.239-13.249,1.275-4.625,2.594-9.084,3.958-13.374,1.36-4.291,2.72-8.222,4.078-11.8,1.354-3.573,2.552-6.39,3.583-8.451,1.034-2.061,1.854-3.176,2.473-3.344.614-.168.902.967.863,3.407,4.173-2.021,8.607-3.932,13.303-5.744,4.692-1.806,9.457-3.322,14.29-4.54,4.832-1.218,9.615-1.996,14.341-2.335,4.724-.334,9.149-.043,13.275.882.18,1.094-.077,2.357-.78,3.786-.703,1.431-2.025,2.357-3.962,2.777-1.771-.251-4.147-.377-7.126-.377s-6.175.168-9.582.503c-3.409.338-6.869.884-10.383,1.642-3.516.756-6.771,1.745-9.769,2.963-3.002,1.222-5.547,2.694-7.641,4.418-2.098,1.723-3.437,3.766-4.029,6.119l-13.743,54.762Z" fill="#feff00"/>
        <path d="M1876.443,365.688c-.259-1.261.482-2.606,2.217-4.037,1.733-1.429,4.045-2.88,6.937-4.351,2.888-1.471,6.098-2.967,9.633-4.481,3.531-1.514,6.937-2.983,10.221-4.416,3.281-1.429,6.202-2.795,8.766-4.1,2.562-1.303,4.39-2.542,5.488-3.721,2.353-2.525,4.552-5.468,6.601-8.832,2.047-3.364,3.666-6.625,4.86-9.781,1.194-3.154,1.879-6.013,2.069-8.579.182-2.566-.466-4.309-1.954-5.237-1.488-.924-3.869-.799-7.142.379-3.279,1.18-7.726,3.828-13.344,7.949-1.557,1.178-3.567,3.261-6.036,6.246-2.469,2.987-5.132,6.289-7.989,9.905-2.856,3.618-5.772,7.256-8.753,10.914-2.981,3.66-5.794,6.751-8.431,9.274-2.641,2.525-4.976,4.185-7.01,4.986s-3.476.148-4.321-1.956c.146-.588.426-1.599.845-3.03.415-1.429.831-2.963,1.242-4.605.411-1.64.766-3.176,1.068-4.607.3-1.429.527-2.436.675-3.026,1.09-5.721,2.092-11.313,3.008-16.783.912-5.468,1.788-10.894,2.625-16.279.833-5.381,1.64-10.766,2.42-16.149.776-5.383,1.587-10.894,2.43-16.532.381-2.436.908-4.078,1.577-4.919.669-.839,1.368-1.115,2.1-.821.726.296,1.475,1.072,2.25,2.335.77,1.261,1.423,2.777,1.954,4.542.529,1.767.876,3.703,1.036,5.805.16,2.104.045,4.165-.347,6.184-.253,1.009-.57,2.608-.946,4.793-.377,2.191-.796,4.649-1.25,7.381-.458,2.736-.953,5.616-1.482,8.644-.533,3.03-1.054,5.912-1.567,8.644-.515,2.734-.961,5.194-1.34,7.381-.375,2.187-.634,3.786-.77,4.795,2.856-1.346,5.421-3.006,7.695-4.984,2.272-1.976,4.497-3.995,6.678-6.058,2.177-2.059,4.457-4.055,6.834-5.993,2.377-1.933,5.049-3.573,8.024-4.921,8.18-3.364,14.714-5.192,19.602-5.49,4.886-.292,8.382.507,10.486,2.4s2.941,4.605,2.513,8.137c-.43,3.533-1.873,7.466-4.337,11.8-2.462,4.331-5.798,8.832-10.008,13.5-4.207,4.67-9.031,9.043-14.467,13.123-5.438,4.082-11.4,7.635-17.888,10.661-6.496,3.03-13.247,5.049-20.261,6.06l-1.293-1.011c-.541-.588-.849-.965-.918-1.137Z" fill="#feff00"/>
        <path d="M1951.075,365.436c-2.533,2.777-4.432,4.183-5.703,4.228-1.273.041-2.1-.884-2.485-2.777-.383-1.893-.401-4.562-.051-8.012s.967-7.276,1.85-11.483c.882-4.203,1.962-8.622,3.239-13.249,1.275-4.625,2.594-9.084,3.958-13.374,1.36-4.291,2.72-8.222,4.078-11.8,1.354-3.573,2.552-6.39,3.583-8.451,1.034-2.061,1.854-3.176,2.473-3.344.614-.168.902.967.863,3.407,4.173-2.021,8.607-3.932,13.303-5.744,4.692-1.806,9.457-3.322,14.29-4.54,4.832-1.218,9.615-1.996,14.341-2.335,4.724-.334,9.149-.043,13.275.882.18,1.094-.077,2.357-.78,3.786-.703,1.431-2.025,2.357-3.962,2.777-1.771-.251-4.147-.377-7.126-.377s-6.175.168-9.582.503c-3.409.338-6.869.884-10.383,1.642-3.516.756-6.771,1.745-9.769,2.963-3.002,1.222-5.547,2.694-7.641,4.418-2.098,1.723-3.437,3.766-4.029,6.119l-13.743,54.762Z" fill="#feff00"/>
        <path d="M2012.426,364.68c-1.407-3.533-1.739-7.108-1.003-10.725s1.921-7.318,3.559-11.104c.409-1.178,1.139-2.943,2.191-5.3,1.048-2.353,2.217-4.961,3.51-7.821,1.289-2.862,2.681-5.888,4.171-9.086,1.49-3.196,2.876-6.224,4.171-9.086,1.289-2.86,2.473-5.405,3.549-7.635,1.074-2.225,1.863-3.889,2.367-4.984,1.804-3.533,3.561-6.538,5.274-9.021,1.711-2.481,3.683-4.396,5.91-5.742,2.229-1.346,4.874-2.061,7.933-2.146,3.054-.081,6.846.464,11.364,1.642.549.085,1.105.399,1.654.946s.851.944.902,1.198c-.047,1.096-.036,2.777.024,5.047.057,2.274.126,4.86.199,7.762.073,2.9.146,5.93.213,9.086.069,3.152.14,6.181.213,9.084s.142,5.488.203,7.76c.061,2.27.126,3.954.197,5.047.219,5.973,1.297,10.115,3.241,12.428,1.938,2.315,4.333,3.514,7.177,3.595,2.843.085,5.969-.608,9.376-2.081,3.405-1.469,6.804-3.026,10.196-4.668,3.391-1.64,6.55-3.048,9.485-4.228,2.931-1.178,5.278-1.386,7.037-.63-.401,1.599-1.309,3.156-2.72,4.67-1.413,1.512-2.998,2.923-4.757,4.226-1.761,1.305-3.638,2.505-5.63,3.597s-3.833,2.019-5.511,2.775c-7.201,3.113-12.971,4.755-17.308,4.921-4.341.168-7.803-.547-10.377-2.144-2.584-1.597-4.441-3.786-5.575-6.563-1.137-2.775-2.065-5.592-2.779-8.453-.715-2.86-1.453-5.405-2.209-7.635-.76-2.225-1.984-3.636-3.668-4.226-.618,1.092-1.81,2.985-3.571,5.677-1.767,2.694-3.66,5.553-5.679,8.581-2.023,3.03-3.944,5.89-5.764,8.581-1.822,2.691-3.101,4.584-3.83,5.677-.338.422-1.026,1.22-2.063,2.398-1.044,1.18-2.31,2.46-3.804,3.849-1.496,1.388-3.123,2.734-4.88,4.037-1.763,1.305-3.478,2.315-5.144,3.028-1.672.713-3.218.949-4.645.693-1.427-.251-2.493-1.261-3.194-3.026ZM2030.707,327.456c-.484,1.011-1.09,2.862-1.822,5.551-.736,2.694-1.48,5.553-2.24,8.581-.76,3.03-1.451,5.89-2.067,8.581-.62,2.694-.953,4.586-.995,5.679,5.13-4.459,10.042-9.653,14.742-15.585,4.696-5.93,8.672-12.069,11.929-18.421,3.253-6.352,5.496-12.659,6.727-18.928,1.228-6.265.94-11.964-.867-17.097-2.604,2.61-5.259,5.89-7.971,9.844s-5.209,7.971-7.495,12.051-4.305,7.906-6.06,11.481c-1.757,3.575-3.05,6.329-3.881,8.263Z" fill="#feff00"/>
        <path d="M2097.56,360.262c-.148-.332-.27-.987-.369-1.956-.103-.965-.176-2.037-.225-3.216-.049-1.175-.051-2.312-.004-3.407.045-1.092.13-1.891.257-2.398l15.391-61.322c.211-.839.874-1.429,1.988-1.767,1.117-.334,2.339-.523,3.668-.567,1.327-.041,2.525-.018,3.595.063,1.066.085,1.656.126,1.771.126l-17.037,67.885c-.359,1.433-.026,2.608,1.005,3.535,1.028.926,2.335,1.66,3.916,2.207,1.581.549,3.273.882,5.075,1.009s3.364.065,4.692-.191c1.159,1.767.776,3.178-1.149,4.23s-4.424,1.64-7.491,1.765c-3.07.126-6.115-.294-9.138-1.263-3.026-.965-5.008-2.544-5.946-4.732ZM2115.199,266.008c.61-2.438,2.323-4.017,5.14-4.732,2.815-.713,5.482-.61,8.001.316l-1.678,6.688c-.365.085-.983.148-1.852.188-.871.043-1.794.063-2.766.063s-1.887-.02-2.734-.063c-.849-.041-1.435-.103-1.759-.188-.44-.083-.957-.422-1.552-1.011-.598-.588-.863-1.007-.799-1.261Z" fill="#feff00"/>
        <path d="M2135.091,364.68c.385-1.092.922-2.987,1.597-5.679l4.307-17.16c.675-2.691,1.09-4.584,1.253-5.679.012-.505.083-1.595.223-3.281.134-1.68.284-3.658.456-5.93.166-2.27.338-4.668.515-7.191.174-2.523.316-4.923.43-7.193.109-2.272.233-4.246.371-5.93.136-1.682.219-2.817.253-3.407.065-1.178.284-2.398.661-3.66.371-1.261.963-2.353,1.769-3.279.803-.926,1.883-1.579,3.239-1.956,1.358-.379,3.166-.274,5.426.314-.332,1.767-.653,3.849-.967,6.246-.318,2.398-.574,4.903-.766,7.509-.199,2.608-.268,5.172-.215,7.695.055,2.525.336,4.838.839,6.942,2.268-3.111,4.422-5.867,6.457-8.267,2.033-2.396,4.222-4.605,6.563-6.623,2.339-2.019,4.882-3.932,7.631-5.74,2.742-1.81,5.963-3.681,9.659-5.616,4.623-2.438,8.222-3.427,10.8-2.965,2.576.464,4.453,1.893,5.63,4.289,1.173,2.4,1.861,5.488,2.055,9.274s.217,7.805.069,12.051c-.15,4.25-.247,8.413-.296,12.493-.053,4.08.294,7.612,1.036,10.6.738,2.985,2.053,5.172,3.942,6.558,1.885,1.39,4.706,1.453,8.46.191.462,2.272.188,3.934-.821,4.984-1.011,1.054-2.418,1.642-4.226,1.767s-3.814-.209-6.021-1.009c-2.205-.799-4.311-1.893-6.309-3.281-2.002-1.388-3.678-3.048-5.024-4.984-1.35-1.933-2.094-3.995-2.231-6.181-.079-1.516.144-3.995.665-7.446.521-3.449.934-7.148,1.24-11.104.304-3.952.219-7.843-.253-11.67s-1.741-6.879-3.806-9.149l-14.189,8.581c-.426.336-1.638,1.848-3.632,4.542s-4.23,5.784-6.71,9.272c-2.483,3.494-4.917,7.027-7.302,10.6-2.387,3.577-4.197,6.457-5.434,8.644-.422.756-1.06,2.167-1.921,4.226-.861,2.065-1.759,4.272-2.694,6.625-.936,2.357-1.747,4.564-2.436,6.623-.689,2.063-1.139,3.516-1.35,4.355-1.411,1.514-3.093,2.27-5.04,2.27s-3.249-.756-3.899-2.27Z" fill="#feff00"/>
        <path d="M2218.77,364.68c-.18-2.019.318-3.66,1.494-4.923,1.175-1.261,2.521-2.165,4.033-2.712,1.512-.545,3.02-.736,4.528-.567,1.504.17,2.464.675,2.884,1.514.42.841.128,2-.871,3.47-.999,1.473-3.196,3.261-6.589,5.363-.541.336-1.143.442-1.796.314-.657-.126-1.236-.334-1.735-.628-.501-.296-.932-.632-1.293-1.011-.365-.379-.584-.651-.655-.819ZM2230.13,331.748c-2.894-4.459-4.151-9.611-3.77-15.46.377-5.843,1.895-12.006,4.552-18.484s6.226-13.06,10.715-19.748c4.485-6.686,9.327-13.078,14.525-19.177,5.197-6.1,10.47-11.692,15.816-16.783,5.344-5.089,10.316-9.252,14.911-12.491,4.597-3.239,8.486-5.383,11.674-6.437,3.186-1.05,5.223-.61,6.115,1.325.184.168.211.527.073,1.072-.138.549-.343.906-.612,1.072-8.042,5.553-15.916,11.694-23.621,18.423-7.704,6.731-14.625,13.753-20.76,21.072-6.133,7.318-11.155,14.87-15.054,22.649-3.903,7.783-6.133,15.543-6.7,23.281-.057.675.268,2.019.965,4.037s1.232,4.207,1.617,6.563c.381,2.355.304,4.605-.233,6.749-.537,2.146-2.126,3.683-4.765,4.607-1.597.424-2.803.314-3.618-.316-.817-.63-1.427-1.281-1.83-1.954Z" fill="#feff00"/>
      </g>
    </g>
  </g>
</svg>