<?xml version="1.0" encoding="UTF-8"?>
<svg id="b" data-name="Layer 2" xmlns="http://www.w3.org/2000/svg" viewBox="0 0 3761.333 549.695">
  <g id="c" data-name="Layer 2">
    <g>
      <g id="d" data-name="title">
        <path d="M235.414,57.733h-83.352v241.717h-68.713V57.733H0V3.251h235.414v54.482Z" fill="#fff"/>
        <path d="M528.764,3.251v296.199h-69.121v-125.227h-120.35v125.227h-69.118V3.251h69.118v123.807h120.35V3.251h69.121Z" fill="#fff"/>
        <path d="M876.796,151.248c0,21.416-3.695,41.338-11.079,59.768-7.39,18.433-17.79,34.458-31.208,48.08-13.417,13.621-29.575,24.292-48.482,32.018-18.907,7.726-39.879,11.589-62.92,11.589s-44.046-3.863-63.019-11.589c-18.976-7.726-35.206-18.397-48.689-32.018-13.489-13.621-23.923-29.647-31.307-48.08-7.39-18.43-11.082-38.352-11.082-59.768s3.692-41.335,11.082-59.768c7.384-18.43,17.818-34.423,31.307-47.978,13.483-13.55,29.713-24.19,48.689-31.916,18.973-7.726,39.979-11.586,63.019-11.586s44.013,3.896,62.92,11.688c18.907,7.795,35.065,18.469,48.482,32.018,13.417,13.555,23.818,29.548,31.208,47.978,7.384,18.433,11.079,38.288,11.079,59.564ZM806.459,151.248c0-14.636-1.9-27.816-5.694-39.54-3.794-11.721-9.248-21.651-16.365-29.782-7.114-8.131-15.824-14.363-26.123-18.703-10.301-4.335-22.026-6.505-35.17-6.505-13.282,0-25.106,2.17-35.473,6.505-10.368,4.34-19.111,10.572-26.225,18.703-7.117,8.131-12.573,18.061-16.365,29.782-3.797,11.724-5.694,24.904-5.694,39.54,0,14.774,1.897,28.023,5.694,39.744,3.791,11.724,9.248,21.651,16.365,29.782,7.114,8.131,15.857,14.333,26.225,18.601,10.368,4.271,22.191,6.405,35.473,6.405,13.144,0,24.868-2.134,35.17-6.405,10.299-4.268,19.009-10.47,26.123-18.601,7.117-8.131,12.571-18.058,16.365-29.782,3.794-11.721,5.694-24.97,5.694-39.744Z" fill="#fff"/>
        <path d="M1040.852,245.172c9.215,0,17.448-1.525,24.7-4.574,7.249-3.05,13.384-7.42,18.4-13.114,5.01-5.691,8.843-12.634,11.484-20.837,2.644-8.198,3.965-17.515,3.965-27.951V3.251h68.713v175.444c0,18.163-2.948,34.831-8.843,50.01s-14.333,28.257-25.31,39.234c-10.98,10.977-24.328,19.516-40.05,25.616-15.722,6.099-33.408,9.149-53.06,9.149-19.789,0-37.541-3.05-53.261-9.149-15.725-6.099-29.073-14.639-40.05-25.616s-19.381-24.055-25.208-39.234c-5.829-15.179-8.741-31.847-8.741-50.01V3.251h68.713v175.24c0,10.437,1.321,19.754,3.962,27.951,2.644,8.203,6.471,15.182,11.487,20.939,5.013,5.763,11.145,10.166,18.397,13.216,7.249,3.05,15.482,4.574,24.7,4.574Z" fill="#fff"/>
        <path d="M1364.085,145.963h105.306v125.026c-15.179,11.115-31.34,19.18-48.485,24.193-17.145,5.013-35.068,7.522-53.771,7.522-24.394,0-46.588-3.83-66.579-11.487-19.991-7.654-37.1-18.226-51.331-31.715-14.231-13.483-25.208-29.476-32.934-47.975-7.726-18.502-11.589-38.592-11.589-60.278,0-22.089,3.662-42.386,10.98-60.885,7.318-18.499,17.788-34.458,31.409-47.876,13.621-13.417,30.088-23.854,49.401-31.307,19.312-7.453,40.894-11.181,64.748-11.181,12.331,0,23.92,1.015,34.765,3.05,10.839,2.032,20.837,4.812,29.983,8.333,9.149,3.527,17.517,7.726,25.108,12.607,7.588,4.878,14.363,10.164,20.33,15.855l-19.925,30.292c-3.119,4.745-7.15,7.657-12.096,8.741-4.947,1.086-10.266-.132-15.957-3.659-5.424-3.254-10.541-6.063-15.35-8.437-4.812-2.369-9.725-4.301-14.738-5.793-5.016-1.489-10.301-2.573-15.857-3.254-5.559-.676-11.79-1.015-18.703-1.015-12.877,0-24.463,2.269-34.762,6.811-10.301,4.541-19.078,10.944-26.327,19.21-7.252,8.269-12.841,18.196-16.773,29.782-3.932,11.589-5.895,24.496-5.895,38.727,0,15.725,2.167,29.683,6.507,41.879,4.335,12.198,10.47,22.5,18.397,30.902,7.927,8.404,17.413,14.81,28.461,19.21,11.043,4.406,23.277,6.607,36.695,6.607,8.264,0,15.755-.813,22.464-2.437,6.709-1.627,13.246-3.794,19.618-6.507v-44.928h-29.275c-4.34,0-7.726-1.15-10.166-3.455-2.437-2.302-3.659-5.217-3.659-8.741v-37.814Z" fill="#fff"/>
        <path d="M1774.126,3.251v296.199h-69.121v-125.227h-120.35v125.227h-69.118V3.251h69.118v123.807h120.35V3.251h69.121Z" fill="#fff"/>
        <path d="M2044.296,57.733h-83.349v241.717h-68.713V57.733h-83.349V3.251h235.411v54.482Z" fill="#fff"/>
        <path d="M2412.051,3.251v296.199h-60.582v-170.36c0-3.929.102-8.198.306-12.808.201-4.605.574-9.281,1.117-14.027l-78.672,152.266c-2.44,4.745-5.73,8.335-9.86,10.776-4.136,2.437-8.843,3.659-14.129,3.659h-9.353c-5.286,0-9.995-1.222-14.129-3.659-4.136-2.44-7.42-6.03-9.86-10.776l-78.675-152.674c.408,4.88.744,9.656,1.017,14.333.27,4.676.408,8.981.408,12.91v170.36h-60.582V3.251h52.447c2.981,0,5.592.072,7.828.204,2.236.138,4.235.543,5.997,1.219,1.759.681,3.353,1.729,4.778,3.152,1.423,1.423,2.81,3.425,4.166,5.997l76.235,150.234c2.71,5.153,5.316,10.505,7.828,16.062,2.504,5.559,4.911,11.25,7.216,17.076,2.302-5.961,4.707-11.79,7.216-17.484,2.506-5.691,5.184-11.109,8.029-16.263l76.034-149.624c1.354-2.573,2.744-4.574,4.166-5.997s3.014-2.471,4.778-3.152c1.759-.676,3.761-1.081,5.997-1.219,2.236-.132,4.845-.204,7.825-.204h52.45Z" fill="#fff"/>
        <path d="M2735.079,299.45h-53.264c-5.964,0-10.773-1.387-14.432-4.166-3.659-2.777-6.438-6.336-8.335-10.674l-17.484-51.637h-112.624l-17.484,51.637c-1.492,3.794-4.166,7.216-8.029,10.266s-8.639,4.574-14.333,4.574h-53.669L2550.083,3.251h70.34l114.656,296.199ZM2625.91,186.217l-27.444-81.115c-2.032-5.148-4.202-11.214-6.505-18.196-2.308-6.979-4.61-14.534-6.913-22.665-2.032,8.267-4.202,15.926-6.505,22.971-2.308,7.048-4.472,13.147-6.507,18.295l-27.24,80.71h81.113Z" fill="#fff"/>
        <path d="M3000.782,299.45h-62.206c-11.523,0-19.789-4.335-24.802-13.012l-49.196-85.993c-2.308-3.659-4.88-6.334-7.726-8.029-2.846-1.693-6.913-2.54-12.198-2.54h-17.482v109.574h-68.713V3.251h96.361c21.411,0,39.673,2.206,54.786,6.607,15.11,4.406,27.447,10.541,37.001,18.4,9.554,7.861,16.497,17.145,20.837,27.852,4.337,10.707,6.505,22.362,6.505,34.966,0,9.623-1.288,18.703-3.863,27.24-2.575,8.539-6.369,16.437-11.382,23.686-5.016,7.252-11.217,13.721-18.601,19.414-7.39,5.691-15.893,10.368-25.514,14.027,4.472,2.305,8.672,5.184,12.604,8.639,3.929,3.458,7.45,7.558,10.572,12.301l63.019,103.069ZM2854.819,142.508c9.35,0,17.311-1.186,23.887-3.557,6.571-2.371,11.959-5.658,16.161-9.86s7.249-9.113,9.149-14.738c1.897-5.622,2.846-11.691,2.846-18.196,0-13.012-4.238-23.175-12.706-30.493-8.471-7.318-21.584-10.98-39.336-10.98h-27.648v87.824h27.648Z" fill="#fff"/>
        <path d="M3094.496,123.195h10.977c10.164,0,17.484-3.182,21.957-9.554l66.678-96.769c3.929-5.148,8.164-8.708,12.706-10.674,4.541-1.963,10.197-2.948,16.977-2.948h59.765l-87.821,119.74c-6.234,8.269-12.943,14.231-20.126,17.89,5.151,1.9,9.824,4.544,14.027,7.93,4.199,3.389,8.134,7.795,11.793,13.213l89.445,137.426h-61.392c-3.932,0-7.288-.27-10.062-.813-2.779-.54-5.184-1.354-7.219-2.44-2.032-1.081-3.794-2.404-5.286-3.962s-2.915-3.356-4.268-5.388l-67.086-103.069c-2.44-3.794-5.526-6.471-9.251-8.029-3.728-1.558-8.777-2.338-15.146-2.338h-16.668v126.041h-68.713V3.251h68.713v119.944Z" fill="#fff"/>
        <path d="M3476.683,63.427c-2.035,3.251-4.169,5.691-6.405,7.318s-5.118,2.44-8.639,2.44c-3.119,0-6.474-.982-10.064-2.948-3.593-1.963-7.657-4.169-12.196-6.607-4.544-2.44-9.728-4.643-15.554-6.609-5.829-1.963-12.469-2.948-19.922-2.948-12.877,0-22.464,2.746-28.765,8.233-6.303,5.49-9.455,12.91-9.455,22.263,0,5.964,1.897,10.911,5.694,14.84,3.791,3.932,8.771,7.318,14.942,10.164,6.165,2.846,13.213,5.457,21.141,7.828,7.93,2.371,16.026,5.016,24.295,7.927,8.264,2.917,16.365,6.336,24.292,10.266,7.93,3.932,14.975,8.945,21.143,15.044,6.165,6.099,11.145,13.519,14.942,22.26,3.794,8.744,5.691,19.282,5.691,31.613,0,13.69-2.371,26.498-7.114,38.424-4.745,11.926-11.622,22.329-20.633,31.205-9.017,8.879-20.129,15.857-33.342,20.939s-28.227,7.624-45.03,7.624c-9.218,0-18.601-.951-28.155-2.848-9.554-1.894-18.805-4.572-27.75-8.029-8.945-3.455-17.349-7.552-25.208-12.298-7.861-4.743-14.708-10.028-20.534-15.857l20.33-32.12c1.627-2.302,3.761-4.235,6.405-5.793,2.642-1.558,5.52-2.338,8.639-2.338,4.067,0,8.164,1.288,12.301,3.863,4.13,2.575,8.807,5.421,14.027,8.537,5.214,3.119,11.211,5.967,17.992,8.539,6.775,2.575,14.771,3.863,23.989,3.863,12.466,0,22.158-2.746,29.071-8.233,6.913-5.49,10.368-14.198,10.368-26.123,0-6.913-1.9-12.535-5.691-16.875-3.797-4.335-8.777-7.927-14.942-10.773-6.171-2.848-13.183-5.355-21.041-7.522-7.864-2.167-15.926-4.574-24.193-7.219-8.269-2.642-16.334-5.895-24.193-9.758-7.861-3.863-14.873-8.945-21.039-15.245-6.171-6.303-11.151-14.162-14.942-23.584-3.797-9.416-5.694-21.041-5.694-34.864,0-11.112,2.236-21.957,6.709-32.528,4.472-10.569,11.046-19.988,19.721-28.257,8.672-8.264,19.312-14.87,31.916-19.82,12.604-4.947,27.038-7.42,43.301-7.42,9.08,0,17.923.711,26.531,2.134,8.603,1.423,16.77,3.527,24.496,6.301,7.726,2.779,14.942,6.099,21.651,9.962s12.706,8.233,17.992,13.111l-17.076,31.919Z" fill="#fff"/>
      </g>
      <g id="e" data-name="tagline">
        <path d="M1120.659,494.101c-.353-1.715.656-3.546,3.017-5.493,2.358-1.944,5.501-3.918,9.438-5.92,3.929-2.002,8.297-4.037,13.106-6.096,4.803-2.06,9.438-4.059,13.905-6.008,4.461-1.944,8.437-3.802,11.923-5.578,3.488-1.773,5.975-3.458,7.47-5.062,3.201-3.436,6.193-7.439,8.981-12.016,2.785-4.577,4.988-9.014,6.612-13.307,1.621-4.29,2.559-8.181,2.812-11.672.251-3.491-.631-5.862-2.655-7.125-2.024-1.257-5.264-1.086-9.717.516-4.461,1.605-10.511,5.209-18.152,10.814-2.12,1.602-4.856,4.437-8.214,8.498-3.358,4.064-6.984,8.556-10.867,13.475-3.888,4.922-7.856,9.871-11.912,14.848-4.056,4.98-7.883,9.185-11.471,12.618-3.593,3.436-6.772,5.694-9.538,6.783-2.768,1.089-4.729.201-5.881-2.661.201-.8.585-2.176,1.153-4.122.565-1.944,1.131-4.031,1.69-6.265.56-2.231,1.042-4.321,1.453-6.267.408-1.944.717-3.314.918-4.117,1.486-7.784,2.846-15.391,4.092-22.834,1.244-7.439,2.432-14.821,3.571-22.147,1.136-7.321,2.231-14.647,3.292-21.97,1.053-7.323,2.159-14.821,3.306-22.492.518-3.314,1.235-5.548,2.145-6.692.91-1.142,1.861-1.517,2.854-1.117.99.403,2.01,1.459,3.063,3.176,1.048,1.715,1.936,3.778,2.658,6.179.72,2.404,1.194,5.038,1.409,7.897.218,2.862.061,5.666-.472,8.413-.345,1.373-.775,3.549-1.288,6.521-.513,2.981-1.084,6.325-1.701,10.042-.626,3.722-1.299,7.641-2.016,11.76-.722,4.122-1.434,8.043-2.134,11.76-.698,3.72-1.304,7.067-1.82,10.042-.513,2.975-.86,5.151-1.048,6.524,3.885-1.831,7.376-4.089,10.47-6.78,3.091-2.688,6.119-5.435,9.085-8.242,2.961-2.801,6.063-5.517,9.298-8.153,3.232-2.631,6.871-4.861,10.916-6.695,11.129-4.577,20.018-7.064,26.669-7.47,6.648-.397,11.402.689,14.266,3.265,2.862,2.575,4.001,6.265,3.419,11.071-.585,4.806-2.548,10.158-5.901,16.053-3.35,5.892-7.889,12.016-13.613,18.367-5.73,6.353-12.289,12.303-19.682,17.854-7.401,5.553-15.513,10.387-24.342,14.504-8.835,4.122-18.019,6.869-27.562,8.244l-1.759-1.376c-.736-.8-1.155-1.312-1.249-1.547Z" fill="#feff00"/>
        <path d="M1224.429,486.72c-2.837-4.23-3.99-8.953-3.46-14.159.524-5.209,1.894-10.671,4.114-16.395,2.214-5.724,4.911-11.504,8.093-17.338,3.176-5.837,6.072-11.473,8.686-16.911,2.611-5.435,4.591-10.528,5.942-15.278,1.343-4.748,1.279-8.84-.196-12.273-.791-1.828-2.242-2.716-4.359-2.661-2.12.058-4.439.287-6.954.687-2.523.403-4.974.543-7.362.427-2.388-.11-4.257-1.199-5.614-3.262.273-.455,1.009-1.056,2.211-1.803,1.197-.739,2.046-1.169,2.542-1.285,14.407-1.486,25.869-.427,34.403,3.174,8.528,3.607,14.774,8.699,18.736,15.278,3.962,6.585,5.931,14.109,5.912,22.574-.022,8.471-1.392,16.886-4.108,25.238-2.724,8.355-6.466,16.108-11.217,23.258-4.762,7.155-9.888,12.675-15.386,16.569-5.504,3.888-11.079,5.606-16.729,5.148-5.655-.458-10.743-4.119-15.254-10.988ZM1238.097,480.714c.072.342.422.8,1.062,1.373.631.574,1.293,1.199,1.983,1.886.681.689,1.351,1.29,2.002,1.803.651.516,1.114.833,1.401.943,6.369-2.402,11.482-5.664,15.32-9.786,3.838-4.117,6.662-8.694,8.476-13.732,1.809-5.032,2.824-10.326,3.05-15.88.223-5.548-.113-10.9-1.001-16.05-.893-5.148-2.236-9.899-4.028-14.247-1.795-4.348-3.67-7.897-5.63-10.643-.529,1.489-1.417,3.775-2.658,6.866-1.244,3.091-2.589,6.585-4.031,10.472-1.445,3.891-3.028,8.013-4.74,12.361-1.718,4.348-3.345,8.495-4.878,12.444-1.539,3.951-2.926,7.467-4.169,10.558-1.244,3.088-2.134,5.382-2.658,6.866-.447,1.147-.728,2.435-.852,3.866-.13,1.428-.127,2.832-.006,4.202.124,1.376.306,2.661.554,3.863.24,1.202.51,2.148.805,2.835Z" fill="#feff00"/>
        <path d="M1302.492,486.72c-2.837-4.23-3.99-8.953-3.46-14.159.524-5.209,1.894-10.671,4.114-16.395,2.214-5.724,4.911-11.504,8.093-17.338,3.176-5.837,6.072-11.473,8.686-16.911,2.611-5.435,4.594-10.528,5.942-15.278,1.343-4.748,1.282-8.84-.196-12.273-.791-1.828-2.242-2.716-4.359-2.661-2.12.058-4.439.287-6.957.687-2.52.403-4.971.543-7.357.427-2.391-.11-4.26-1.199-5.614-3.262.27-.455,1.004-1.056,2.206-1.803,1.199-.739,2.049-1.169,2.542-1.285,14.41-1.486,25.875-.427,34.406,3.174,8.526,3.607,14.774,8.699,18.736,15.278,3.962,6.585,5.931,14.109,5.912,22.574-.019,8.471-1.392,16.886-4.111,25.238-2.721,8.355-6.463,16.108-11.217,23.258-4.759,7.155-9.885,12.675-15.386,16.569-5.498,3.888-11.076,5.606-16.726,5.148-5.658-.458-10.743-4.119-15.254-10.988ZM1316.163,480.714c.066.342.419.8,1.059,1.373.631.574,1.296,1.199,1.983,1.886.681.689,1.348,1.29,2.002,1.803.651.516,1.114.833,1.401.943,6.372-2.402,11.479-5.664,15.317-9.786,3.844-4.117,6.664-8.694,8.476-13.732,1.809-5.032,2.826-10.326,3.052-15.88.223-5.548-.113-10.9-1.001-16.05-.893-5.148-2.233-9.899-4.028-14.247s-3.67-7.897-5.63-10.643c-.532,1.489-1.415,3.775-2.658,6.866s-2.589,6.585-4.031,10.472c-1.445,3.891-3.028,8.013-4.74,12.361-1.718,4.348-3.342,8.495-4.878,12.444-1.539,3.951-2.926,7.467-4.169,10.558-1.244,3.088-2.131,5.382-2.661,6.866-.444,1.147-.725,2.435-.849,3.866-.127,1.428-.127,2.832-.006,4.202.124,1.376.306,2.661.551,3.863.243,1.202.513,2.148.811,2.835Z" fill="#feff00"/>
        <path d="M1378.758,483.631c.615-1.828,1.867-4.489,3.758-7.983,1.886-3.491,3.758-7.21,5.606-11.159s3.378-7.867,4.591-11.757c1.208-3.891,1.528-7.183.957-9.871-.576-2.688-2.346-4.492-5.311-5.41-2.97-.913-7.734-.397-14.302,1.547-3.259-.687-4.966-1.657-5.115-2.917-.152-1.26.676-2.688,2.479-4.293,1.803-1.602,4.23-3.347,7.277-5.236,3.05-1.889,6.146-3.833,9.301-5.835,3.154-2.005,6.028-3.979,8.619-5.926,2.597-1.944,4.274-3.833,5.049-5.664.072-.915.303-2.917.689-6.008.383-3.091.775-6.664,1.172-10.729.394-4.062.893-8.382,1.5-12.962.601-4.574,1.108-8.928,1.519-13.045.411-4.122.8-7.698,1.172-10.732.369-3.028.607-5.062.711-6.094.215-1.483.609-2.887,1.175-4.205.562-1.315,1.426-2.429,2.592-3.347,1.166-.915,2.603-1.517,4.312-1.803,1.707-.284,3.8-.085,6.281.601-.314,4.354-.769,9.27-1.368,14.763-.598,5.495-1.164,11.159-1.693,16.996-.527,5.837-.943,11.675-1.235,17.509-.295,5.837-.298,11.275,0,16.31,1.784-.915,4.053-2.49,6.8-4.721,2.741-2.233,5.697-4.69,8.868-7.381,3.165-2.688,6.455-5.377,9.86-8.068,3.403-2.688,6.56-4.864,9.474-6.524,2.906-1.657,5.49-2.631,7.748-2.92,2.253-.284,3.824.601,4.71,2.661.097.232.055.717-.132,1.461s-.403,1.285-.642,1.63c-3.176,4.58-7.472,8.812-12.893,12.703-5.424,3.893-10.891,7.668-16.409,11.33-5.52,3.665-10.478,7.412-14.868,11.244-4.395,3.835-7.213,7.925-8.46,12.276,1.175.915,2.824,2.402,4.96,4.461l16.602,14.934c3.204,2.746,6.201,5.41,8.989,7.985,2.779,2.575,5.239,4.892,7.376,6.951l5.005,4.29c.764.687,1.963,1.803,3.604,3.347,1.635,1.547,3.006,3.237,4.108,5.065,1.095,1.834,1.508,3.607,1.238,5.322-.278,1.715-2.04,3.149-5.289,4.29-.342.116-1.02.171-2.032.171s-1.663-.055-1.944-.171c-6.116-7.321-13.026-14.732-20.735-22.23-7.707-7.492-16.249-13.991-25.629-19.483-.416,1.028-1.053,2.633-1.911,4.806-.86,2.176-1.905,4.635-3.138,7.381-1.238,2.749-2.506,5.639-3.813,8.669-1.31,3.036-2.619,5.923-3.929,8.669-1.315,2.749-2.476,5.211-3.491,7.381-1.015,2.176-1.803,3.778-2.374,4.806-.301.576-.951,1.461-1.955,2.661-1.004,1.202-2.198,2.38-3.574,3.521-1.379,1.144-2.848,2.032-4.409,2.661s-3.052.659-4.467.085c.116-.458.27-1.227.466-2.319.193-1.086.458-2.286.789-3.604.328-1.315.676-2.545,1.042-3.692.364-1.142.604-1.944.72-2.402Z" fill="#feff00"/>
        <path d="M1540.611,492.731c1.456-4.577,2.865-9.414,4.224-14.506,1.354-5.093,2.523-10.213,3.502-15.364.982-5.151,1.759-10.271,2.338-15.364s.816-9.929.717-14.506c-.088-8.352-1.255-14.735-3.502-19.141-2.244-4.403-5.167-6.75-8.757-7.039-3.593-.284-7.472,1.489-11.625,5.322-4.161,3.835-8.118,9.816-11.87,17.942-.631,1.257-1.506,3.201-2.633,5.835-1.131,2.633-2.385,5.611-3.761,8.926-1.381,3.323-2.812,6.844-4.288,10.561-1.481,3.72-2.909,7.238-4.288,10.555-1.381,3.323-2.553,6.295-3.524,8.928-.976,2.633-1.699,4.577-2.167,5.837-1.395,1.831-3.422,2.917-6.08,3.259-2.661.345-5.01.232-7.051-.342l14.451-89.266c.215-1.486,1.006-2.774,2.374-3.863,1.359-1.086,2.799-1.831,4.301-2.231s2.898-.369,4.188.085c1.288.46,1.966,1.489,2.032,3.088l1.506,26.611c6.987-8.586,12.998-14.677,18.039-18.284,5.035-3.604,9.361-5.462,12.976-5.581,3.615-.113,6.731,1.147,9.347,3.78,2.611,2.633,4.892,5.807,6.844,9.524,1.952,3.722,3.728,7.671,5.333,11.846,1.599,4.18,3.353,7.756,5.258,10.732,10.442-16.139,20.655-27.783,30.637-34.936,9.979-7.15,18.593-10.1,25.842-8.84,7.246,1.26,12.568,6.609,15.971,16.048,3.397,9.444,3.893,22.69,1.483,39.742-.347,2.636-.982,6.096-1.903,10.39-.924,4.288-1.897,8.495-2.934,12.615-1.031,4.119-2.01,7.698-2.926,10.729-.918,3.036-1.563,4.665-1.933,4.894l-4.707,2.917-6.72-5.837c2.429-5.948,4.257-12.157,5.493-18.626,1.233-6.463,2.002-12.96,2.316-19.486.312-6.521.309-12.874-.011-19.05-.32-6.182-.742-11.961-1.263-17.341-1.037-4.577-3.019-7.235-5.948-7.983-2.937-.742-6.193-.345-9.775,1.202-3.585,1.547-7.086,3.835-10.494,6.869-3.414,3.033-6.179,5.978-8.3,8.837-1.365,1.718-3.074,4.009-5.115,6.869-2.043,2.862-4.051,5.724-6.011,8.584-1.971,2.859-3.692,5.38-5.173,7.555-1.481,2.173-2.344,3.43-2.584,3.775-1.142,2.06-2.774,5.608-4.894,10.641-2.123,5.04-4.332,10.417-6.623,16.139-2.294,5.724-4.392,11.131-6.295,16.221-1.9,5.096-3.19,8.672-3.86,10.732-.43,1.715-1.299,2.691-2.603,2.917-1.307.226-2.68.113-4.125-.342-1.602-.458-3.411-1.315-5.432-2.575Z" fill="#feff00"/>
        <path d="M1647.673,492.731c-1.914-4.806-2.366-9.67-1.365-14.592s2.614-9.957,4.842-15.107c.557-1.602,1.552-4.004,2.981-7.21,1.426-3.201,3.017-6.75,4.776-10.641,1.754-3.893,3.648-8.01,5.675-12.361,2.027-4.348,3.915-8.468,5.675-12.361,1.754-3.891,3.364-7.354,4.828-10.387,1.461-3.028,2.534-5.291,3.223-6.78,2.451-4.806,4.842-8.895,7.175-12.273,2.324-3.375,5.007-5.981,8.04-7.812,3.03-1.831,6.629-2.804,10.789-2.92,4.155-.11,9.314.631,15.46,2.233.75.116,1.5.543,2.25,1.288.747.744,1.158,1.285,1.227,1.63-.063,1.492-.052,3.778.03,6.866.08,3.094.174,6.612.276,10.561.097,3.946.196,8.068.287,12.361.094,4.288.19,8.41.292,12.358.097,3.949.19,7.467.276,10.558.077,3.088.168,5.38.265,6.866.298,8.126,1.765,13.762,4.406,16.908,2.639,3.149,5.895,4.781,9.767,4.892,3.869.116,8.12-.827,12.755-2.832,4.632-1.999,9.256-4.117,13.872-6.35,4.613-2.231,8.914-4.147,12.907-5.752,3.987-1.602,7.175-1.886,9.571-.858-.546,2.176-1.781,4.293-3.703,6.353-1.919,2.057-4.075,3.976-6.469,5.749-2.399,1.776-4.949,3.408-7.66,4.894-2.713,1.486-5.214,2.746-7.497,3.775-9.797,4.235-17.644,6.469-23.548,6.695-5.906.229-10.613-.744-14.12-2.917-3.513-2.173-6.039-5.151-7.583-8.928-1.55-3.775-2.807-7.608-3.78-11.501-.973-3.891-1.977-7.354-3.006-10.387-1.034-3.028-2.699-4.947-4.988-5.749-.844,1.486-2.465,4.062-4.864,7.723-2.402,3.665-4.977,7.555-7.723,11.675-2.752,4.122-5.369,8.013-7.842,11.675-2.479,3.662-4.221,6.237-5.214,7.723-.458.574-1.392,1.66-2.807,3.262-1.417,1.605-3.141,3.347-5.173,5.236-2.035,1.889-4.249,3.72-6.64,5.493-2.399,1.776-4.732,3.149-6.998,4.119-2.272.971-4.379,1.29-6.32.943-1.941-.342-3.392-1.715-4.346-4.117ZM1672.544,442.086c-.659,1.376-1.483,3.893-2.479,7.552-1.001,3.665-2.013,7.555-3.047,11.675-1.034,4.122-1.974,8.013-2.812,11.675-.844,3.665-1.296,6.24-1.357,7.726,6.982-6.066,13.665-13.133,20.057-21.204,6.392-8.068,11.801-16.42,16.23-25.061s7.481-17.222,9.154-25.751c1.671-8.523,1.279-16.277-1.18-23.261-3.543,3.551-7.155,8.013-10.842,13.392-3.692,5.38-7.092,10.845-10.199,16.395-3.11,5.551-5.857,10.756-8.247,15.62-2.388,4.864-4.147,8.611-5.278,11.242Z" fill="#feff00"/>
        <path d="M1776.7,493.759c-3.447,3.778-6.03,5.691-7.759,5.752-1.732.055-2.857-1.202-3.381-3.778-.521-2.575-.546-6.207-.069-10.9s1.315-9.899,2.517-15.623c1.199-5.719,2.669-11.73,4.406-18.025,1.734-6.292,3.529-12.358,5.385-18.196,1.85-5.837,3.7-11.187,5.548-16.053,1.842-4.861,3.471-8.694,4.875-11.498,1.406-2.804,2.523-4.321,3.364-4.55.835-.229,1.227,1.315,1.175,4.635,5.677-2.749,11.71-5.349,18.099-7.814,6.383-2.457,12.866-4.519,19.442-6.176,6.574-1.657,13.081-2.716,19.511-3.176,6.427-.455,12.447-.058,18.061,1.199.245,1.489-.105,3.207-1.062,5.151-.957,1.947-2.755,3.207-5.391,3.778-2.41-.342-5.642-.513-9.695-.513s-8.402.229-13.037.684c-4.638.46-9.345,1.202-14.126,2.233-4.784,1.028-9.212,2.374-13.29,4.031-4.084,1.663-7.547,3.665-10.395,6.011-2.854,2.344-4.676,5.123-5.482,8.324l-18.698,74.503Z" fill="#feff00"/>
        <path d="M1873.441,483.631c.615-1.828,1.867-4.489,3.758-7.983,1.886-3.491,3.758-7.21,5.606-11.159s3.378-7.867,4.591-11.757c1.208-3.891,1.528-7.183.957-9.871-.576-2.688-2.346-4.492-5.311-5.41-2.97-.913-7.734-.397-14.302,1.547-3.259-.687-4.966-1.657-5.115-2.917-.152-1.26.676-2.688,2.479-4.293,1.803-1.602,4.23-3.347,7.277-5.236,3.05-1.889,6.146-3.833,9.301-5.835,3.154-2.005,6.028-3.979,8.619-5.926,2.597-1.944,4.274-3.833,5.049-5.664.072-.915.303-2.917.689-6.008.383-3.091.775-6.664,1.172-10.729.394-4.062.893-8.382,1.5-12.962.601-4.574,1.108-8.928,1.519-13.045.411-4.122.8-7.698,1.172-10.732.369-3.028.607-5.062.711-6.094.215-1.483.609-2.887,1.175-4.205.562-1.315,1.426-2.429,2.592-3.347,1.166-.915,2.603-1.517,4.312-1.803,1.707-.284,3.8-.085,6.281.601-.314,4.354-.769,9.27-1.368,14.763-.598,5.495-1.164,11.159-1.693,16.996-.527,5.837-.943,11.675-1.235,17.509-.295,5.837-.298,11.275,0,16.31,1.784-.915,4.053-2.49,6.8-4.721,2.741-2.233,5.697-4.69,8.868-7.381,3.165-2.688,6.455-5.377,9.86-8.068,3.403-2.688,6.56-4.864,9.474-6.524,2.906-1.657,5.49-2.631,7.748-2.92,2.253-.284,3.824.601,4.71,2.661.097.232.055.717-.132,1.461s-.403,1.285-.642,1.63c-3.176,4.58-7.472,8.812-12.893,12.703-5.424,3.893-10.891,7.668-16.409,11.33-5.52,3.665-10.478,7.412-14.868,11.244-4.395,3.835-7.213,7.925-8.46,12.276,1.175.915,2.824,2.402,4.96,4.461l16.602,14.934c3.204,2.746,6.201,5.41,8.989,7.985,2.779,2.575,5.239,4.892,7.376,6.951l5.005,4.29c.764.687,1.963,1.803,3.604,3.347,1.635,1.547,3.006,3.237,4.108,5.065,1.095,1.834,1.508,3.607,1.238,5.322-.278,1.715-2.04,3.149-5.289,4.29-.342.116-1.02.171-2.032.171s-1.663-.055-1.944-.171c-6.116-7.321-13.026-14.732-20.735-22.23-7.707-7.492-16.249-13.991-25.629-19.483-.416,1.028-1.053,2.633-1.911,4.806-.86,2.176-1.905,4.635-3.138,7.381-1.238,2.749-2.506,5.639-3.813,8.669-1.31,3.036-2.619,5.923-3.929,8.669-1.315,2.749-2.476,5.211-3.491,7.381-1.015,2.176-1.803,3.778-2.374,4.806-.301.576-.951,1.461-1.955,2.661-1.004,1.202-2.198,2.38-3.574,3.521-1.379,1.144-2.848,2.032-4.409,2.661s-3.052.659-4.467.085c.116-.458.27-1.227.466-2.319.193-1.086.458-2.286.789-3.604.328-1.315.676-2.545,1.042-3.692.364-1.142.604-1.944.72-2.402Z" fill="#feff00"/>
        <path d="M1978.457,492.731c-3.226-2.06-5.269-4.952-6.127-8.672-.863-3.717-.921-7.21-.179-10.47.739-3.262,1.955-5.779,3.651-7.555,1.69-1.77,3.414-1.803,5.167-.085-1.867,6.182-1.483,10.875,1.144,14.079,2.622,3.204,6.295,5.209,11.005,6.005,4.71.802,9.99.576,15.844-.684,5.848-1.26,11.101-3.234,15.753-5.926,4.652-2.686,8.203-5.975,10.663-9.871,2.457-3.888,2.688-8.068.692-12.529-3.223-3.317-6.976-6.551-11.25-9.7-4.279-3.146-8.6-6.265-12.973-9.353-4.368-3.094-8.564-6.267-12.573-9.529-4.02-3.259-7.437-6.722-10.263-10.384-.254-.232-.287-.714-.099-1.461.187-.744.46-1.227.833-1.459,1.348-1.031,3.312-2.631,5.887-4.806,2.567-2.173,5.526-4.635,8.87-7.381,3.339-2.749,6.866-5.636,10.594-8.669,3.722-3.033,7.255-5.923,10.596-8.669,3.339-2.749,6.336-5.209,8.986-7.381s4.649-3.778,6-4.806c2.699-2.062,5.222-3.265,7.569-3.607,2.346-.345,5.526-.113,9.538.684-.273.46-1.15,1.461-2.628,3.008-1.478,1.541-2.512,2.548-3.091,3.003-1.594,1.373-4.533,3.75-8.807,7.125-4.277,3.378-8.848,6.982-13.707,10.814-4.861,3.835-9.43,7.439-13.707,10.814-4.279,3.378-7.274,5.694-8.994,6.951-1.594,1.376-1.53,2.981.196,4.809,1.723,1.834,4.324,3.891,7.806,6.179,3.48,2.291,7.442,4.836,11.884,7.641,4.439,2.804,8.556,5.807,12.353,9.011,3.794,3.204,6.833,6.64,9.11,10.301,2.275,3.662,3.011,7.58,2.195,11.757-.816,4.18-3.549,8.556-8.209,13.133-4.654,4.577-12.154,9.441-22.489,14.592-3.21,1.605-6.634,2.978-10.274,4.119-3.64,1.144-7.301,1.916-10.988,2.316-3.689.403-7.268.372-10.737-.085-3.474-.455-6.551-1.544-9.24-3.259Z" fill="#feff00"/>
        <path d="M2216.912,492.731c-.201-.458-.383-1.117-.56-1.974-.174-.858-.334-1.773-.48-2.746-.146-.971-.312-1.858-.499-2.661-.19-.8-.24-1.376-.154-1.718.16-1.26.455-3.204.88-5.837.427-2.633.899-5.606,1.423-8.926.518-3.32,1.131-6.838,1.831-10.558.698-3.717,1.307-7.238,1.831-10.558.518-3.317,1.031-6.295,1.539-8.926.502-2.631.915-4.574,1.23-5.837-.287-.113-.971-.171-2.06-.171-1.095,0-1.812.058-2.151.171-1.304.229-3.549.631-6.733,1.199-3.182.576-6.582,1.205-10.18,1.892l-10.252,1.715c-3.267.574-5.473.973-6.62,1.202l-8.393-7.555,49.362-10.299,24.411-65.578c1.685-4.233,4.381-7.836,8.093-10.814,3.709-2.972,7.806-5.322,12.292-7.039,4.483-1.712,8.912-2.746,13.288-3.088s7.996-.028,10.872.943c2.876.973,4.638,2.636,5.3,4.98.656,2.346-.488,5.349-3.43,9.011-2.655,1.263-4.616,1.776-5.884,1.547s-2.142-.775-2.631-1.632c-.485-.858-.819-1.858-1.001-3.003-.182-1.142-.576-2.06-1.183-2.746-2.418-2.173-4.85-2.89-7.296-2.145-2.449.742-4.883,2.515-7.299,5.322-2.424,2.804-4.784,6.323-7.095,10.555-2.311,4.238-4.467,8.785-6.466,13.649-2.002,4.864-3.86,9.786-5.575,14.763-1.718,4.98-3.21,9.529-4.478,13.646-1.268,4.122-2.261,7.616-2.978,10.472l-1.293,5.151c2.945.687,6.427.629,10.453-.174,4.02-.8,8.206-1.944,12.554-3.43,4.351-1.486,8.68-3.063,12.995-4.723,4.312-1.654,8.302-2.945,11.964-3.86,3.656-.915,6.811-1.202,9.455-.86,2.639.345,4.5,1.776,5.586,4.293l-9.182,5.835-52.629,14.937-4.944,2.92c-.215.229-.736,1.831-1.558,4.803-.827,2.978-1.754,6.524-2.788,10.646-1.034,4.117-2.054,8.324-3.05,12.618-1.001,4.29-1.767,7.809-2.297,10.555-.165,1.263-.052,3.152.331,5.666.381,2.517.565,5.209.546,8.068-.014,2.862-.529,5.526-1.533,7.983-1.009,2.462-3.044,4.208-6.11,5.236-1.861.574-3.427.458-4.71-.342s-2.195-1.66-2.744-2.575Z" fill="#feff00"/>
        <path d="M2310.985,486.72c-2.837-4.23-3.99-8.953-3.46-14.159.524-5.209,1.894-10.671,4.114-16.395,2.214-5.724,4.911-11.504,8.093-17.338,3.176-5.837,6.072-11.473,8.686-16.911,2.611-5.435,4.594-10.528,5.942-15.278,1.343-4.748,1.282-8.84-.196-12.273-.791-1.828-2.242-2.716-4.359-2.661-2.12.058-4.439.287-6.957.687-2.52.403-4.971.543-7.357.427-2.391-.11-4.26-1.199-5.614-3.262.27-.455,1.004-1.056,2.206-1.803,1.199-.739,2.049-1.169,2.542-1.285,14.41-1.486,25.875-.427,34.406,3.174,8.526,3.607,14.774,8.699,18.736,15.278,3.962,6.585,5.931,14.109,5.912,22.574-.019,8.471-1.392,16.886-4.111,25.238-2.721,8.355-6.463,16.108-11.217,23.258-4.759,7.155-9.885,12.675-15.386,16.569-5.498,3.888-11.076,5.606-16.726,5.148-5.658-.458-10.743-4.119-15.254-10.988ZM2324.655,480.714c.066.342.419.8,1.059,1.373.631.574,1.296,1.199,1.983,1.886.681.689,1.348,1.29,2.002,1.803.651.516,1.114.833,1.401.943,6.372-2.402,11.479-5.664,15.317-9.786,3.844-4.117,6.664-8.694,8.476-13.732,1.809-5.032,2.826-10.326,3.052-15.88.223-5.548-.113-10.9-1.001-16.05-.893-5.148-2.233-9.899-4.028-14.247s-3.67-7.897-5.63-10.643c-.532,1.489-1.415,3.775-2.658,6.866s-2.589,6.585-4.031,10.472c-1.445,3.891-3.028,8.013-4.74,12.361-1.718,4.348-3.342,8.495-4.878,12.444-1.539,3.951-2.926,7.467-4.169,10.558-1.244,3.088-2.131,5.382-2.661,6.866-.444,1.147-.725,2.435-.849,3.866-.127,1.428-.127,2.832-.006,4.202.124,1.376.306,2.661.551,3.863.243,1.202.513,2.148.811,2.835Z" fill="#feff00"/>
        <path d="M2386.814,493.759c-3.444,3.778-6.03,5.691-7.759,5.752-1.732.055-2.857-1.202-3.378-3.778-.524-2.575-.546-6.207-.072-10.9.477-4.693,1.312-9.899,2.515-15.623,1.202-5.719,2.672-11.73,4.409-18.025,1.734-6.292,3.529-12.358,5.385-18.196,1.853-5.837,3.7-11.187,5.548-16.053,1.842-4.861,3.471-8.694,4.875-11.498,1.406-2.804,2.523-4.321,3.364-4.55.835-.229,1.227,1.315,1.175,4.635,5.677-2.749,11.71-5.349,18.099-7.814,6.383-2.457,12.866-4.519,19.445-6.176,6.574-1.657,13.078-2.716,19.508-3.176,6.427-.455,12.447-.058,18.058,1.199.248,1.489-.105,3.207-1.059,5.151-.954,1.947-2.755,3.207-5.391,3.778-2.41-.342-5.642-.513-9.695-.513s-8.402.229-13.037.684c-4.641.46-9.345,1.202-14.126,2.233-4.781,1.028-9.212,2.374-13.29,4.031-4.084,1.663-7.55,3.665-10.395,6.011-2.851,2.344-4.676,5.123-5.482,8.324l-18.698,74.503Z" fill="#feff00"/>
        <path d="M2663.773,546.289c-3.411-1.947-5.457-4.522-6.13-7.726-.678-3.204-.449-6.753.684-10.643,1.128-3.891,2.937-7.98,5.418-12.273s5.159-8.44,8.035-12.447,5.757-7.723,8.65-11.156c2.884-3.436,5.305-6.237,7.255-8.413.88-1.028,2.297-2.631,4.249-4.806,1.947-2.173,4.202-4.638,6.761-7.384l16.004-17.164c2.562-2.746,4.892-5.206,6.998-7.384,2.101-2.17,3.673-3.775,4.715-4.806,2.129-5.377,2.683-9.612,1.665-12.703-1.017-3.088-3.017-5.206-6.005-6.35-2.989-1.142-6.7-1.428-11.129-.86-4.434.576-9.099,1.776-14.002,3.607s-9.775,4.15-14.608,6.954c-4.839,2.804-9.088,5.92-12.758,9.353-1.078.576-3.052,1.919-5.923,4.037s-6.323,4.693-10.359,7.723c-4.034,3.033-8.487,6.325-13.351,9.871-4.869,3.549-9.794,7.012-14.771,10.384-4.98,3.378-9.778,6.496-14.391,9.358-4.619,2.862-8.804,5.093-12.56,6.695-3.755,1.605-6.855,2.462-9.298,2.575-2.446.116-3.863-.915-4.255-3.091-.127-.113-.157-.455-.091-1.031.063-.568.179-1.172.336-1.803.157-.626.345-1.227.568-1.801.221-.571.452-1.031.695-1.373.598-1.142,1.864-3.546,3.797-7.21,1.93-3.662,4.18-7.952,6.742-12.874,2.556-4.922,5.322-10.183,8.291-15.794,2.961-5.606,5.727-10.872,8.289-15.794,2.559-4.916,4.839-9.182,6.835-12.789,1.994-3.604,3.369-5.981,4.128-7.125.568-1.028,1.925-2.404,4.075-4.117,2.142-1.718,4.45-3.149,6.921-4.293,2.471-1.142,4.745-1.66,6.822-1.547,2.076.116,3.419,1.434,4.037,3.951-1.991,1.715-4.461,4.403-7.403,8.065-2.948,3.665-5.97,7.787-9.066,12.361-3.102,4.58-6.223,9.414-9.369,14.506-3.152,5.096-5.978,9.987-8.479,14.677-2.504,4.693-4.483,9.011-5.945,12.96-1.456,3.951-2.151,7.012-2.068,9.185,8.184-6.524,17.25-13.445,27.198-20.771,9.94-7.321,19.947-14.247,30.005-20.771,10.056-6.524,19.858-12.19,29.404-16.996,9.549-4.806,18.041-7.897,25.483-9.27,7.439-1.373,13.483-.601,18.13,2.316,4.646,2.923,7.172,8.843,7.585,17.771l33.016-17.857h12.163c.598,3.207.011,5.382-1.756,6.524-1.77,1.147-4.133,2.035-7.097,2.661-2.964.631-6.218,1.318-9.755,2.062-3.54.742-6.728,2.258-9.562,4.55-2.837,2.289-5.046,5.664-6.634,10.128-1.591,4.464-1.925,10.759-.998,18.882.747,5.724.789,11.617.121,17.683-.665,6.066-2.289,12.074-4.872,18.025-1.131,2.633-3.234,6.207-6.32,10.729-3.083,4.519-6.802,9.24-11.153,14.162-4.357,4.922-9.223,9.725-14.611,14.421-5.388,4.69-10.925,8.581-16.613,11.672-5.688,3.091-11.429,5.005-17.231,5.752-5.801.742-11.305-.317-16.511-3.176ZM2671.496,531.353c.157,4.351,1.533,7.097,4.13,8.242s5.942,1.028,10.028-.342c4.086-1.376,8.642-3.835,13.663-7.381,5.018-3.549,9.907-7.787,14.65-12.706,4.743-4.922,9.113-10.387,13.119-16.392,4.001-6.011,7.064-12.16,9.19-18.455,2.123-6.292,3.033-12.557,2.73-18.797-.306-6.237-2.341-12.102-6.108-17.595-4.078,1.947-8.41,4.919-13.001,8.923-4.594,4.009-9.135,8.586-13.619,13.734-4.492,5.151-8.865,10.616-13.122,16.395-4.257,5.779-7.98,11.443-11.162,16.993-3.187,5.551-5.735,10.732-7.643,15.538-1.908,4.809-2.862,8.755-2.857,11.843Z" fill="#feff00"/>
        <path d="M2778.77,486.72c-2.837-4.23-3.99-8.953-3.46-14.159.524-5.209,1.894-10.671,4.114-16.395,2.214-5.724,4.911-11.504,8.093-17.338,3.176-5.837,6.072-11.473,8.686-16.911,2.611-5.435,4.591-10.528,5.942-15.278,1.343-4.748,1.279-8.84-.196-12.273-.791-1.828-2.242-2.716-4.359-2.661-2.12.058-4.439.287-6.954.687-2.523.403-4.974.543-7.362.427-2.388-.11-4.257-1.199-5.614-3.262.273-.455,1.009-1.056,2.211-1.803,1.197-.739,2.046-1.169,2.542-1.285,14.407-1.486,25.869-.427,34.403,3.174,8.528,3.607,14.774,8.699,18.736,15.278,3.962,6.585,5.931,14.109,5.912,22.574-.022,8.471-1.392,16.886-4.108,25.238-2.724,8.355-6.466,16.108-11.217,23.258-4.762,7.155-9.888,12.675-15.386,16.569-5.504,3.888-11.079,5.606-16.729,5.148-5.655-.458-10.743-4.119-15.254-10.988ZM2792.438,480.714c.072.342.422.8,1.062,1.373.631.574,1.293,1.199,1.983,1.886.681.689,1.351,1.29,2.002,1.803.651.516,1.114.833,1.401.943,6.369-2.402,11.482-5.664,15.32-9.786,3.838-4.117,6.662-8.694,8.476-13.732,1.809-5.032,2.824-10.326,3.05-15.88.223-5.548-.113-10.9-1.001-16.05-.893-5.148-2.236-9.899-4.028-14.247-1.795-4.348-3.67-7.897-5.63-10.643-.529,1.489-1.417,3.775-2.658,6.866-1.244,3.091-2.589,6.585-4.031,10.472-1.445,3.891-3.028,8.013-4.74,12.361-1.718,4.348-3.345,8.495-4.878,12.444-1.539,3.951-2.926,7.467-4.169,10.558-1.244,3.088-2.134,5.382-2.658,6.866-.447,1.147-.728,2.435-.852,3.866-.13,1.428-.127,2.832-.006,4.202.124,1.376.306,2.661.554,3.863.24,1.202.51,2.148.805,2.835Z" fill="#feff00"/>
        <path d="M2845.374,486.72c-.201-.452-.397-1.227-.587-2.316-.196-1.086-.325-2.289-.383-3.604-.061-1.315-.105-2.545-.127-3.692-.025-1.144.022-1.947.138-2.402l16.456-65.578c.259-1.028.987-1.773,2.2-2.233,1.202-.455,2.523-.739,3.954-.855,1.434-.116,2.796-.116,4.092,0s2.165.229,2.606.342c-.532,1.489-1.183,3.775-1.958,6.866s-1.693,6.585-2.746,10.472c-1.056,3.891-2.09,8.013-3.102,12.361-1.015,4.348-2.021,8.526-3.028,12.529l-2.628,10.472c-.775,3.088-1.271,5.382-1.486,6.866-1.301,6.411-1.21,10.875.262,13.39,1.475,2.52,3.753,3.692,6.835,3.521s6.596-1.431,10.536-3.778c3.94-2.344,7.762-5.151,11.468-8.41,3.7-3.262,6.971-6.667,9.816-10.216,2.835-3.546,4.602-6.695,5.291-9.441l11.2-44.633h16.373c-.976,2.633-2.225,6.069-3.753,10.299-1.533,4.235-2.956,8.815-4.266,13.734-1.315,4.922-2.457,9.929-3.422,15.022-.965,5.09-1.431,9.899-1.395,14.421.033,4.522.717,8.468,2.057,11.843,1.335,3.375,3.576,5.779,6.728,7.21,3.149,1.431,7.337,1.66,12.573.687,5.233-.973,11.81-3.576,19.734-7.812.656,2.978-.609,5.837-3.789,8.584-3.187,2.746-7.064,5.151-11.633,7.21-4.574,2.06-9.32,3.576-14.239,4.55-4.925.973-8.95,1.172-12.08.601-.441-.113-1.067-.574-1.878-1.376-.816-.8-1.332-1.37-1.558-1.715-.425-.797-1.136-2.316-2.134-4.55-1.001-2.231-2.038-4.605-3.124-7.122s-2.079-4.922-2.983-7.21c-.91-2.289-1.561-3.891-1.952-4.809-1.252,1.263-3.292,3.176-6.119,5.752-2.832,2.575-6.13,5.322-9.904,8.242-3.775,2.917-7.737,5.664-11.892,8.239-4.153,2.575-8.162,4.406-12.019,5.493-3.863,1.089-7.398,1.202-10.61.342-3.218-.858-5.724-3.287-7.525-7.296Z" fill="#feff00"/>
        <path d="M2957.223,493.759c-3.447,3.778-6.03,5.691-7.759,5.752-1.732.055-2.857-1.202-3.381-3.778-.521-2.575-.546-6.207-.069-10.9s1.315-9.899,2.517-15.623c1.199-5.719,2.669-11.73,4.406-18.025,1.734-6.292,3.529-12.358,5.385-18.196,1.85-5.837,3.7-11.187,5.548-16.053,1.842-4.861,3.471-8.694,4.875-11.498,1.406-2.804,2.523-4.321,3.364-4.55.835-.229,1.227,1.315,1.175,4.635,5.677-2.749,11.71-5.349,18.099-7.814,6.383-2.457,12.866-4.519,19.442-6.176,6.574-1.657,13.081-2.716,19.511-3.176,6.427-.455,12.447-.058,18.061,1.199.245,1.489-.105,3.207-1.062,5.151-.957,1.947-2.755,3.207-5.391,3.778-2.41-.342-5.642-.513-9.695-.513s-8.402.229-13.037.684c-4.638.46-9.345,1.202-14.126,2.233-4.784,1.028-9.212,2.374-13.29,4.031-4.084,1.663-7.547,3.665-10.395,6.011-2.854,2.344-4.676,5.123-5.482,8.324l-18.698,74.503Z" fill="#feff00"/>
        <path d="M3178.516,494.101c-.353-1.715.656-3.546,3.017-5.493,2.358-1.944,5.504-3.918,9.438-5.92,3.929-2.002,8.297-4.037,13.106-6.096,4.803-2.06,9.438-4.059,13.905-6.008,4.464-1.944,8.437-3.802,11.926-5.578,3.485-1.773,5.972-3.458,7.467-5.062,3.201-3.436,6.193-7.439,8.981-12.016,2.785-4.577,4.988-9.014,6.612-13.307,1.624-4.29,2.556-8.181,2.815-11.672.248-3.491-.634-5.862-2.658-7.125-2.024-1.257-5.264-1.086-9.717.516-4.461,1.605-10.511,5.209-18.154,10.814-2.118,1.602-4.853,4.437-8.211,8.498-3.358,4.064-6.982,8.556-10.869,13.475-3.885,4.922-7.853,9.871-11.909,14.848-4.056,4.98-7.883,9.185-11.471,12.618-3.593,3.436-6.769,5.694-9.538,6.783s-4.729.201-5.879-2.661c.199-.8.579-2.176,1.15-4.122.565-1.944,1.131-4.031,1.69-6.265.56-2.231,1.042-4.321,1.453-6.267.408-1.944.717-3.314.918-4.117,1.483-7.784,2.846-15.391,4.092-22.834,1.241-7.439,2.432-14.821,3.571-22.147,1.133-7.321,2.231-14.647,3.292-21.97,1.056-7.323,2.159-14.821,3.306-22.492.518-3.314,1.235-5.548,2.145-6.692.91-1.142,1.861-1.517,2.857-1.117.987.403,2.007,1.459,3.061,3.176,1.048,1.715,1.936,3.778,2.658,6.179.72,2.404,1.191,5.038,1.409,7.897.218,2.862.061,5.666-.472,8.413-.345,1.373-.775,3.549-1.288,6.521-.513,2.981-1.084,6.325-1.701,10.042-.623,3.722-1.296,7.641-2.016,11.76-.725,4.122-1.434,8.043-2.131,11.76-.7,3.72-1.307,7.067-1.823,10.042-.51,2.975-.863,5.151-1.048,6.524,3.885-1.831,7.376-4.089,10.47-6.78,3.091-2.688,6.119-5.435,9.085-8.242,2.961-2.801,6.063-5.517,9.298-8.153,3.234-2.631,6.869-4.861,10.916-6.695,11.129-4.577,20.018-7.064,26.669-7.47,6.648-.397,11.404.689,14.266,3.265s4.001,6.265,3.419,11.071c-.585,4.806-2.548,10.158-5.901,16.053-3.35,5.892-7.889,12.016-13.616,18.367-5.724,6.353-12.287,12.303-19.682,17.854-7.398,5.553-15.51,10.387-24.336,14.504-8.837,4.122-18.022,6.869-27.565,8.244l-1.759-1.376c-.736-.8-1.155-1.312-1.249-1.547Z" fill="#feff00"/>
        <path d="M3280.052,493.759c-3.447,3.778-6.03,5.691-7.759,5.752-1.732.055-2.857-1.202-3.381-3.778-.521-2.575-.546-6.207-.069-10.9s1.315-9.899,2.517-15.623c1.199-5.719,2.669-11.73,4.406-18.025,1.734-6.292,3.529-12.358,5.385-18.196,1.85-5.837,3.7-11.187,5.548-16.053,1.842-4.861,3.471-8.694,4.875-11.498,1.406-2.804,2.523-4.321,3.364-4.55.835-.229,1.227,1.315,1.175,4.635,5.677-2.749,11.71-5.349,18.099-7.814,6.383-2.457,12.866-4.519,19.442-6.176,6.574-1.657,13.081-2.716,19.511-3.176,6.427-.455,12.447-.058,18.061,1.199.245,1.489-.105,3.207-1.062,5.151-.957,1.947-2.755,3.207-5.391,3.778-2.41-.342-5.642-.513-9.695-.513s-8.402.229-13.037.684c-4.638.46-9.345,1.202-14.126,2.233-4.784,1.028-9.212,2.374-13.29,4.031-4.084,1.663-7.547,3.665-10.395,6.011-2.854,2.344-4.676,5.123-5.482,8.324l-18.698,74.503Z" fill="#feff00"/>
        <path d="M3363.52,492.731c-1.914-4.806-2.366-9.67-1.365-14.592s2.614-9.957,4.842-15.107c.557-1.602,1.55-4.004,2.981-7.21,1.426-3.201,3.017-6.75,4.776-10.641,1.754-3.893,3.648-8.01,5.675-12.361,2.027-4.348,3.913-8.468,5.675-12.361,1.754-3.891,3.364-7.354,4.828-10.387,1.461-3.028,2.534-5.291,3.221-6.78,2.454-4.806,4.845-8.895,7.175-12.273,2.327-3.375,5.01-5.981,8.04-7.812,3.033-1.831,6.631-2.804,10.792-2.92,4.155-.11,9.314.631,15.46,2.233.747.116,1.503.543,2.25,1.288s1.158,1.285,1.227,1.63c-.063,1.492-.05,3.778.033,6.866.077,3.094.171,6.612.27,10.561.099,3.946.199,8.068.29,12.361.094,4.288.19,8.41.29,12.358s.193,7.467.276,10.558c.083,3.088.171,5.38.267,6.866.298,8.126,1.765,13.762,4.409,16.908,2.636,3.149,5.895,4.781,9.764,4.892,3.869.116,8.12-.827,12.755-2.832,4.632-1.999,9.256-4.117,13.872-6.35,4.613-2.231,8.912-4.147,12.904-5.752,3.987-1.602,7.18-1.886,9.573-.858-.546,2.176-1.781,4.293-3.7,6.353-1.922,2.057-4.078,3.976-6.471,5.749-2.396,1.776-4.949,3.408-7.66,4.894s-5.214,2.746-7.497,3.775c-9.797,4.235-17.647,6.469-23.548,6.695-5.906.229-10.616-.744-14.118-2.917-3.516-2.173-6.041-5.151-7.585-8.928-1.547-3.775-2.81-7.608-3.78-11.501-.973-3.891-1.977-7.354-3.006-10.387-1.034-3.028-2.699-4.947-4.991-5.749-.841,1.486-2.462,4.062-4.858,7.723-2.404,3.665-4.98,7.555-7.726,11.675-2.752,4.122-5.366,8.013-7.842,11.675-2.479,3.662-4.219,6.237-5.211,7.723-.46.574-1.395,1.66-2.807,3.262-1.42,1.605-3.143,3.347-5.176,5.236-2.035,1.889-4.249,3.72-6.64,5.493-2.399,1.776-4.732,3.149-6.998,4.119-2.275.971-4.379,1.29-6.32.943-1.941-.342-3.392-1.715-4.346-4.117ZM3388.391,442.086c-.659,1.376-1.483,3.893-2.479,7.552-1.001,3.665-2.013,7.555-3.047,11.675-1.034,4.122-1.974,8.013-2.812,11.675-.844,3.665-1.296,6.24-1.354,7.726,6.979-6.066,13.663-13.133,20.057-21.204,6.389-8.068,11.799-16.42,16.23-25.061,4.426-8.642,7.478-17.222,9.152-25.751,1.671-8.523,1.279-16.277-1.18-23.261-3.543,3.551-7.155,8.013-10.845,13.392s-7.086,10.845-10.197,16.395-5.857,10.756-8.244,15.62c-2.391,4.864-4.15,8.611-5.28,11.242Z" fill="#feff00"/>
        <path d="M3479.345,486.72c-.201-.452-.367-1.343-.502-2.661-.141-1.312-.24-2.771-.306-4.376-.066-1.599-.069-3.146-.006-4.635.061-1.486.176-2.573.35-3.262l20.939-83.429c.287-1.142,1.188-1.944,2.705-2.404,1.519-.455,3.182-.711,4.991-.772,1.806-.055,3.436-.025,4.892.085,1.45.116,2.253.171,2.41.171l-23.178,92.357c-.488,1.949-.036,3.549,1.368,4.809,1.398,1.26,3.176,2.258,5.327,3.003,2.151.747,4.453,1.199,6.904,1.373s4.577.088,6.383-.259c1.577,2.404,1.056,4.324-1.563,5.755s-6.019,2.231-10.191,2.402c-4.177.171-8.319-.4-12.433-1.718-4.117-1.312-6.813-3.46-8.09-6.438ZM3503.342,358.487c.83-3.317,3.16-5.465,6.993-6.438,3.83-.971,7.459-.83,10.886.43l-2.283,9.099c-.496.116-1.337.201-2.52.256-1.186.058-2.44.085-3.764.085s-2.567-.028-3.72-.085c-1.155-.055-1.952-.141-2.393-.256-.598-.113-1.301-.574-2.112-1.376-.813-.8-1.175-1.37-1.086-1.715Z" fill="#feff00"/>
        <path d="M3530.405,492.731c.524-1.486,1.255-4.064,2.173-7.726l5.859-23.346c.918-3.662,1.483-6.237,1.704-7.726.017-.687.113-2.17.303-4.464.182-2.286.386-4.977.62-8.068.226-3.088.46-6.35.7-9.783.237-3.433.43-6.698.585-9.786.149-3.091.317-5.777.505-8.068.185-2.289.298-3.833.345-4.635.088-1.602.386-3.262.899-4.98.505-1.715,1.31-3.201,2.407-4.461,1.092-1.26,2.562-2.148,4.406-2.661,1.847-.516,4.307-.372,7.381.427-.452,2.404-.888,5.236-1.315,8.498-.433,3.262-.78,6.67-1.042,10.216-.27,3.549-.364,7.037-.292,10.47.074,3.436.458,6.582,1.142,9.444,3.085-4.233,6.017-7.983,8.785-11.247,2.766-3.259,5.744-6.265,8.928-9.011,3.182-2.746,6.642-5.349,10.381-7.809,3.731-2.462,8.112-5.007,13.141-7.641,6.289-3.317,11.187-4.663,14.694-4.034,3.505.631,6.058,2.575,7.66,5.835,1.597,3.265,2.531,7.467,2.796,12.618s.295,10.619.094,16.395c-.204,5.782-.336,11.446-.403,16.996-.072,5.551.4,10.357,1.409,14.421,1.004,4.062,2.793,7.037,5.363,8.923,2.564,1.892,6.403,1.977,11.509.259.629,3.091.256,5.352-1.117,6.78-1.376,1.434-3.29,2.233-5.749,2.404s-5.189-.284-8.192-1.373c-3-1.086-5.865-2.575-8.584-4.464-2.724-1.889-5.005-4.147-6.835-6.78-1.836-2.631-2.848-5.435-3.036-8.41-.108-2.062.196-5.435.904-10.13.709-4.693,1.271-9.725,1.687-15.107.414-5.377.298-10.671-.345-15.877-.642-5.206-2.369-9.358-5.178-12.447l-19.304,11.675c-.579.458-2.228,2.515-4.941,6.179s-5.755,7.869-9.13,12.615c-3.378,4.754-6.689,9.56-9.935,14.421-3.248,4.867-5.71,8.785-7.392,11.76-.574,1.028-1.442,2.948-2.614,5.749-1.172,2.81-2.393,5.812-3.665,9.014-1.274,3.207-2.377,6.21-3.314,9.011-.937,2.807-1.55,4.784-1.836,5.926-1.919,2.06-4.208,3.088-6.858,3.088s-4.42-1.028-5.305-3.088Z" fill="#feff00"/>
        <path d="M3644.25,492.731c-.245-2.746.433-4.98,2.032-6.698,1.599-1.715,3.43-2.945,5.487-3.689,2.057-.742,4.108-1.001,6.16-.772,2.046.232,3.353.918,3.924,2.06.571,1.144.174,2.721-1.186,4.721-1.359,2.005-4.348,4.437-8.964,7.296-.736.458-1.555.601-2.443.427-.893-.171-1.682-.455-2.36-.855-.681-.403-1.268-.86-1.759-1.376-.496-.516-.794-.885-.891-1.114ZM3659.705,447.926c-3.937-6.066-5.647-13.075-5.129-21.033.513-7.949,2.578-16.334,6.193-25.147s8.471-17.768,14.578-26.868c6.102-9.096,12.689-17.793,19.762-26.09,7.07-8.3,14.244-15.907,21.518-22.834,7.271-6.924,14.035-12.587,20.286-16.993,6.254-4.406,11.545-7.323,15.882-8.757,4.335-1.428,7.106-.83,8.319,1.803.251.229.287.717.099,1.459-.187.747-.466,1.233-.833,1.459-10.941,7.555-21.653,15.91-32.137,25.064-10.481,9.157-19.897,18.711-28.243,28.668-8.344,9.957-15.176,20.231-20.482,30.813-5.311,10.588-8.344,21.146-9.116,31.674-.077.918.364,2.746,1.312,5.493s1.676,5.724,2.2,8.928c.518,3.204.414,6.265-.317,9.182-.731,2.92-2.892,5.01-6.483,6.267-2.173.576-3.813.427-4.922-.43-1.111-.858-1.941-1.743-2.49-2.658Z" fill="#feff00"/>
      </g>
    </g>
  </g>
</svg>